<?xml version="1.0" encoding="utf-8"?>
<!-- Generator: Adobe Illustrator 22.0.0, SVG Export Plug-In . SVG Version: 6.00 Build 0)  -->
<svg version="1.1" id="Layer_1" xmlns="http://www.w3.org/2000/svg" xmlns:xlink="http://www.w3.org/1999/xlink" x="0px" y="0px"
	 viewBox="0 0 365 100" style="enable-background:new 0 0 365 100;" xml:space="preserve">
<style type="text/css">
	.st0{fill-opacity:0.2;}
	.st1{fill:#909295;}
	.st2{fill:#D1D1D1;}
	.st3{filter:url(#Adobe_OpacityMaskFilter);}
	.st4{fill:#FFFFFF;}
	.st5{mask:url(#mask-6_1_);fill:#B7B7B7;}
	.st6{filter:url(#Adobe_OpacityMaskFilter_1_);}
	.st7{mask:url(#mask-6_2_);fill:#B7B7B7;}
	.st8{filter:url(#Adobe_OpacityMaskFilter_2_);}
	.st9{mask:url(#mask-6_3_);fill:#909295;}
	.st10{filter:url(#Adobe_OpacityMaskFilter_3_);}
	.st11{mask:url(#mask-6_4_);fill:#E8E8E7;}
	.st12{filter:url(#Adobe_OpacityMaskFilter_4_);}
	.st13{mask:url(#mask-6_5_);fill:#909295;}
	.st14{filter:url(#Adobe_OpacityMaskFilter_5_);}
	.st15{mask:url(#mask-6_6_);fill:#E8E8E7;}
	.st16{filter:url(#Adobe_OpacityMaskFilter_6_);}
	.st17{mask:url(#mask-6_7_);fill:#B7B7B7;}
	.st18{filter:url(#Adobe_OpacityMaskFilter_7_);}
	.st19{mask:url(#mask-6_8_);fill:#909295;}
	.st20{filter:url(#Adobe_OpacityMaskFilter_8_);}
	.st21{mask:url(#mask-6_9_);fill:#E8E8E7;}
	.st22{filter:url(#Adobe_OpacityMaskFilter_9_);}
	.st23{mask:url(#mask-6_10_);fill:#909295;}
	.st24{filter:url(#Adobe_OpacityMaskFilter_10_);}
	.st25{mask:url(#mask-6_11_);fill:#909295;}
	.st26{filter:url(#Adobe_OpacityMaskFilter_11_);}
	.st27{mask:url(#mask-6_12_);fill:#909295;}
	.st28{filter:url(#Adobe_OpacityMaskFilter_12_);}
	.st29{mask:url(#mask-6_13_);fill:#909295;}
	.st30{filter:url(#Adobe_OpacityMaskFilter_13_);}
	.st31{mask:url(#mask-6_14_);fill:#909295;}
	.st32{filter:url(#Adobe_OpacityMaskFilter_14_);}
	.st33{mask:url(#mask-6_15_);fill:#909295;}
	.st34{filter:url(#Adobe_OpacityMaskFilter_15_);}
	.st35{mask:url(#mask-6_16_);fill:#E8E8E7;}
</style>
<title>Group 4</title>
<desc>Created with Sketch.</desc>
<g id="Homepage">
	<g id="Homepage-Desktop" transform="translate(-1211.000000, -1052.000000)">
		<g id="Art---Buildings" transform="translate(92.000000, 1052.000000)">
			<g id="Group-4" transform="translate(1119.000000, 0.000000)">
				<ellipse id="Oval-2-Copy-2" class="st0" cx="194.7" cy="69.2" rx="169.7" ry="30.2"/>
				<g id="Barrel" transform="translate(0.000000, 36.000000)">
					<path id="Fill-11_2_" class="st1" d="M24.3,30.4"/>
					<path id="Fill-15" class="st1" d="M29.2,35c0.1-0.1,0-0.2,0-0.3l0,0 M29.9,34.1c0.3,0.4,0.4,0.9,0.1,1.4"/>
				</g>
				<g id="Bldg-B" transform="translate(55.000000, 0.000000)">
					<path id="Fill-1_1_" class="st2" d="M288,1.5c0.8,0,1.4,0.7,1.4,1.5l0,68.7h-18.1l0-5.4l-54.2,0l-3.1,5.4l-0.4,0l-19-0.1l0-5.8
						l-54.2,0l-3.4,6l0,0H137l-17.8,0v-6.1l-54.2,0v0.1l-3.4,6.2L43,71.8v-1.2H30.6l-0.9,1.1l-0.1,0.1l-23.3,0V2.2L288,1.5z"/>
					<g id="Clip-4">
					</g>
					<defs>
						<filter id="Adobe_OpacityMaskFilter" filterUnits="userSpaceOnUse" x="61.6" y="19.8" width="57.6" height="51.8">
							<feColorMatrix  type="matrix" values="1 0 0 0 0  0 1 0 0 0  0 0 1 0 0  0 0 0 1 0"/>
						</filter>
					</defs>
					<mask maskUnits="userSpaceOnUse" x="61.6" y="19.8" width="57.6" height="51.8" id="mask-6_1_">
						<g class="st3">
							<polygon id="path-5_1_" class="st4" points="0,75.6 296.9,75.6 296.9,0 0,0 							"/>
						</g>
					</mask>
					<polygon id="Fill-3" class="st5" points="61.6,71.6 119.2,71.6 119.2,19.8 61.6,19.8 					"/>
					<defs>
						<filter id="Adobe_OpacityMaskFilter_1_" filterUnits="userSpaceOnUse" x="137" y="20.2" width="57.6" height="51.7">
							<feColorMatrix  type="matrix" values="1 0 0 0 0  0 1 0 0 0  0 0 1 0 0  0 0 0 1 0"/>
						</filter>
					</defs>
					<mask maskUnits="userSpaceOnUse" x="137" y="20.2" width="57.6" height="51.7" id="mask-6_2_">
						<g class="st6">
							<polygon id="path-5_2_" class="st4" points="0,75.6 296.9,75.6 296.9,0 0,0 							"/>
						</g>
					</mask>
					<polygon id="Fill-5" class="st7" points="137,71.8 194.6,71.8 194.6,20.2 137,20.2 					"/>
					<defs>
						<filter id="Adobe_OpacityMaskFilter_2_" filterUnits="userSpaceOnUse" x="75.8" y="34.8" width="30.1" height="2.2">
							<feColorMatrix  type="matrix" values="1 0 0 0 0  0 1 0 0 0  0 0 1 0 0  0 0 0 1 0"/>
						</filter>
					</defs>
					<mask maskUnits="userSpaceOnUse" x="75.8" y="34.8" width="30.1" height="2.2" id="mask-6_3_">
						<g class="st8">
							<polygon id="path-5_3_" class="st4" points="0,75.6 296.9,75.6 296.9,0 0,0 							"/>
						</g>
					</mask>
					<polygon id="Fill-6" class="st9" points="75.8,37 105.9,37 105.9,34.8 75.8,34.8 					"/>
					<defs>
						<filter id="Adobe_OpacityMaskFilter_3_" filterUnits="userSpaceOnUse" x="75.8" y="30.8" width="30.1" height="4">
							<feColorMatrix  type="matrix" values="1 0 0 0 0  0 1 0 0 0  0 0 1 0 0  0 0 0 1 0"/>
						</filter>
					</defs>
					<mask maskUnits="userSpaceOnUse" x="75.8" y="30.8" width="30.1" height="4" id="mask-6_4_">
						<g class="st10">
							<polygon id="path-5_4_" class="st4" points="0,75.6 296.9,75.6 296.9,0 0,0 							"/>
						</g>
					</mask>
					<polygon id="Fill-7_1_" class="st11" points="75.8,34.8 105.9,34.8 105.9,30.8 75.8,30.8 					"/>
					<defs>
						<filter id="Adobe_OpacityMaskFilter_4_" filterUnits="userSpaceOnUse" x="151.9" y="35" width="30.1" height="2.2">
							<feColorMatrix  type="matrix" values="1 0 0 0 0  0 1 0 0 0  0 0 1 0 0  0 0 0 1 0"/>
						</filter>
					</defs>
					<mask maskUnits="userSpaceOnUse" x="151.9" y="35" width="30.1" height="2.2" id="mask-6_5_">
						<g class="st12">
							<polygon id="path-5_5_" class="st4" points="0,75.6 296.9,75.6 296.9,0 0,0 							"/>
						</g>
					</mask>
					<polygon id="Fill-8" class="st13" points="151.9,37.2 182,37.2 182,35 151.9,35 					"/>
					<defs>
						<filter id="Adobe_OpacityMaskFilter_5_" filterUnits="userSpaceOnUse" x="151.9" y="31" width="30.1" height="4">
							<feColorMatrix  type="matrix" values="1 0 0 0 0  0 1 0 0 0  0 0 1 0 0  0 0 0 1 0"/>
						</filter>
					</defs>
					<mask maskUnits="userSpaceOnUse" x="151.9" y="31" width="30.1" height="4" id="mask-6_6_">
						<g class="st14">
							<polygon id="path-5_6_" class="st4" points="0,75.6 296.9,75.6 296.9,0 0,0 							"/>
						</g>
					</mask>
					<polygon id="Fill-9_1_" class="st15" points="151.9,35 182,35 182,31 151.9,31 					"/>
					<defs>
						<filter id="Adobe_OpacityMaskFilter_6_" filterUnits="userSpaceOnUse" x="214.1" y="20.6" width="57.3" height="51">
							<feColorMatrix  type="matrix" values="1 0 0 0 0  0 1 0 0 0  0 0 1 0 0  0 0 0 1 0"/>
						</filter>
					</defs>
					<mask maskUnits="userSpaceOnUse" x="214.1" y="20.6" width="57.3" height="51" id="mask-6_7_">
						<g class="st16">
							<polygon id="path-5_7_" class="st4" points="0,75.6 296.9,75.6 296.9,0 0,0 							"/>
						</g>
					</mask>
					<polygon id="Fill-10" class="st17" points="214.1,71.6 271.4,71.6 271.4,20.6 214.1,20.6 					"/>
					<defs>
						<filter id="Adobe_OpacityMaskFilter_7_" filterUnits="userSpaceOnUse" x="228.7" y="35.4" width="30.1" height="2.2">
							<feColorMatrix  type="matrix" values="1 0 0 0 0  0 1 0 0 0  0 0 1 0 0  0 0 0 1 0"/>
						</filter>
					</defs>
					<mask maskUnits="userSpaceOnUse" x="228.7" y="35.4" width="30.1" height="2.2" id="mask-6_8_">
						<g class="st18">
							<polygon id="path-5_8_" class="st4" points="0,75.6 296.9,75.6 296.9,0 0,0 							"/>
						</g>
					</mask>
					<polygon id="Fill-11_1_" class="st19" points="228.7,37.6 258.7,37.6 258.7,35.4 228.7,35.4 					"/>
					<defs>
						<filter id="Adobe_OpacityMaskFilter_8_" filterUnits="userSpaceOnUse" x="228.7" y="31.4" width="30.1" height="4">
							<feColorMatrix  type="matrix" values="1 0 0 0 0  0 1 0 0 0  0 0 1 0 0  0 0 0 1 0"/>
						</filter>
					</defs>
					<mask maskUnits="userSpaceOnUse" x="228.7" y="31.4" width="30.1" height="4" id="mask-6_9_">
						<g class="st20">
							<polygon id="path-5_9_" class="st4" points="0,75.6 296.9,75.6 296.9,0 0,0 							"/>
						</g>
					</mask>
					<polygon id="Fill-12" class="st21" points="228.7,35.4 258.7,35.4 258.7,31.4 228.7,31.4 					"/>
					<defs>
						<filter id="Adobe_OpacityMaskFilter_9_" filterUnits="userSpaceOnUse" x="29.7" y="43.6" width="13.3" height="28.2">
							<feColorMatrix  type="matrix" values="1 0 0 0 0  0 1 0 0 0  0 0 1 0 0  0 0 0 1 0"/>
						</filter>
					</defs>
					<mask maskUnits="userSpaceOnUse" x="29.7" y="43.6" width="13.3" height="28.2" id="mask-6_10_">
						<g class="st22">
							<polygon id="path-5_10_" class="st4" points="0,75.6 296.9,75.6 296.9,0 0,0 							"/>
						</g>
					</mask>
					<polygon id="Fill-13_1_" class="st23" points="43,43.6 43,71.8 29.7,71.8 29.7,43.6 					"/>
					<defs>
						<filter id="Adobe_OpacityMaskFilter_10_" filterUnits="userSpaceOnUse" x="40.8" y="58.1" width="1" height="1.1">
							<feColorMatrix  type="matrix" values="1 0 0 0 0  0 1 0 0 0  0 0 1 0 0  0 0 0 1 0"/>
						</filter>
					</defs>
					<mask maskUnits="userSpaceOnUse" x="40.8" y="58.1" width="1" height="1.1" id="mask-6_11_">
						<g class="st24">
							<polygon id="path-5_11_" class="st4" points="0,75.6 296.9,75.6 296.9,0 0,0 							"/>
						</g>
					</mask>
					<path id="Fill-14" class="st25" d="M41.3,59.2c0.3,0,0.5-0.3,0.4-0.6c0-0.3-0.3-0.5-0.6-0.5c-0.3,0-0.5,0.3-0.4,0.6
						C40.8,59,41.1,59.2,41.3,59.2"/>
					<defs>
						<filter id="Adobe_OpacityMaskFilter_11_" filterUnits="userSpaceOnUse" x="40.7" y="58" width="1" height="1.1">
							<feColorMatrix  type="matrix" values="1 0 0 0 0  0 1 0 0 0  0 0 1 0 0  0 0 0 1 0"/>
						</filter>
					</defs>
					<mask maskUnits="userSpaceOnUse" x="40.7" y="58" width="1" height="1.1" id="mask-6_12_">
						<g class="st26">
							<polygon id="path-5_12_" class="st4" points="0,75.6 296.9,75.6 296.9,0 0,0 							"/>
						</g>
					</mask>
					<path id="Fill-15_1_" class="st27" d="M41.2,59.1c0.3,0,0.5-0.3,0.4-0.6c0-0.3-0.3-0.5-0.6-0.5c-0.3,0-0.5,0.3-0.4,0.6
						C40.7,58.9,41,59.1,41.2,59.1"/>
					<defs>
						<filter id="Adobe_OpacityMaskFilter_12_" filterUnits="userSpaceOnUse" x="279" y="0.8" width="2.2" height="74">
							<feColorMatrix  type="matrix" values="1 0 0 0 0  0 1 0 0 0  0 0 1 0 0  0 0 0 1 0"/>
						</filter>
					</defs>
					<mask maskUnits="userSpaceOnUse" x="279" y="0.8" width="2.2" height="74" id="mask-6_13_">
						<g class="st28">
							<polygon id="path-5_13_" class="st4" points="0,75.6 296.9,75.6 296.9,0 0,0 							"/>
						</g>
					</mask>
					<path id="Fill-16" class="st29" d="M279.2,0.8l0,8L279,74c0.1,0.4,0.5,0.8,1,0.8c0.5,0,0.9-0.3,1-0.7l0.2-65.2l0-8L279.2,0.8z"
						/>
					<defs>
						<filter id="Adobe_OpacityMaskFilter_13_" filterUnits="userSpaceOnUse" x="127.1" y="1.7" width="2.2" height="74">
							<feColorMatrix  type="matrix" values="1 0 0 0 0  0 1 0 0 0  0 0 1 0 0  0 0 0 1 0"/>
						</filter>
					</defs>
					<mask maskUnits="userSpaceOnUse" x="127.1" y="1.7" width="2.2" height="74" id="mask-6_14_">
						<g class="st30">
							<polygon id="path-5_14_" class="st4" points="0,75.6 296.9,75.6 296.9,0 0,0 							"/>
						</g>
					</mask>
					<path id="Fill-17" class="st31" d="M127.3,1.7l0,8l-0.2,65.2c0.1,0.4,0.5,0.8,1,0.8c0.5,0,0.9-0.3,1-2.7l0.2-65.2l0-6.1
						L127.3,1.7z"/>
					<defs>
						<filter id="Adobe_OpacityMaskFilter_14_" filterUnits="userSpaceOnUse" x="203.7" y="1.3" width="2.2" height="74">
							<feColorMatrix  type="matrix" values="1 0 0 0 0  0 1 0 0 0  0 0 1 0 0  0 0 0 1 0"/>
						</filter>
					</defs>
					<mask maskUnits="userSpaceOnUse" x="203.7" y="1.3" width="2.2" height="74" id="mask-6_15_">
						<g class="st32">
							<polygon id="path-5_15_" class="st4" points="0,75.6 296.9,75.6 296.9,0 0,0 							"/>
						</g>
					</mask>
					<path id="Fill-18" class="st33" d="M203.9,1.3l0,8l-0.2,65.2c0.1,0.4,0.5,0.8,1,0.8c0.5,0,0.9-0.3,1-0.7l0.2-65.2l0-8
						L203.9,1.3z"/>
					<defs>
						<filter id="Adobe_OpacityMaskFilter_15_" filterUnits="userSpaceOnUse" x="0" y="0" width="296.9" height="2.6">
							<feColorMatrix  type="matrix" values="1 0 0 0 0  0 1 0 0 0  0 0 1 0 0  0 0 0 1 0"/>
						</filter>
					</defs>
					<mask maskUnits="userSpaceOnUse" x="0" y="0" width="296.9" height="2.6" id="mask-6_16_">
						<g class="st34">
							<polygon id="path-5_16_" class="st4" points="0,75.6 296.9,75.6 296.9,0 0,0 							"/>
						</g>
					</mask>
					<polygon id="Fill-19" class="st35" points="0,2.3 296.9,2.6 296.9,0.3 0,0 					"/>
				</g>
			</g>
		</g>
	</g>
</g>
</svg>
