<?xml version="1.0" encoding="UTF-8"?>
<svg viewBox="0 0 346 165" version="1.1" xmlns="http://www.w3.org/2000/svg" xmlns:xlink="http://www.w3.org/1999/xlink">
    <!-- Generator: Sketch 42 (36781) - http://www.bohemiancoding.com/sketch -->
    <title>Group</title>
    <desc>Created with Sketch.</desc>
    <defs>
        <polygon id="path-1" points="0 137.648881 269.588505 137.648881 269.588505 0.631408739 0 0.631408739"></polygon>
    </defs>
    <g id="Homepage" stroke="none" stroke-width="1" fill="none" fill-rule="evenodd">
        <g id="Homepage-Desktop" transform="translate(-319.000000, -1090.000000)">
            <g id="Art---Buildings" transform="translate(92.000000, 1052.000000)">
                <g id="Group" transform="translate(227.000000, 38.000000)">
                    <ellipse id="Oval-2-Copy" fill-opacity="0.2" fill="#000000" cx="173.398863" cy="133.201578" rx="172.5" ry="31"></ellipse>
                    <g id="Bldg-A" transform="translate(35.000000, 0.000000)">
                        <polygon id="Fill-1" fill="#DCDBDA" points="125.714597 101.254251 125.71028 101.256915 125.640337 101.337728 125.714597 101.274676 125.736184 101.254251"></polygon>
                        <polygon id="Fill-2" fill="#E8E8E7" points="92.4777623 27.3255231 108.93583 27.3255231 108.93583 12.3244592 92.4777623 12.3244592"></polygon>
                        <polygon id="Fill-3" fill="#E8E8E7" points="66.8529133 27.3255231 83.3109811 27.3255231 83.3109811 12.3244592 66.8529133 12.3244592"></polygon>
                        <polygon id="Fill-4" fill="#D1D1D1" points="0 132.402683 55.424659 132.352064 55.424659 127.027272 123.821488 127.027272 123.821488 132.352064 169.590632 132.352064 169.590632 127.027272 237.986597 127.027272 237.986597 132.352064 269.587641 132.64157 269.587641 26.9698561 0 26.7300807"></polygon>
                        <polygon id="Fill-5" fill="#B7B7B7" points="55.4255225 132.641126 123.821488 132.641126 123.821488 73.3677418 55.4255225 73.3677418"></polygon>
                        <polygon id="Fill-6" fill="#B7B7B7" points="169.590632 132.641126 237.986597 132.641126 237.986597 73.3677418 169.590632 73.3677418"></polygon>
                        <g id="Group-28" transform="translate(0.000000, 0.256649)">
                            <path d="M251.19303,113.257766 L251.1559,127.433825 L251.185259,136.158988 C251.380407,136.926269 252.484807,137.569223 253.832711,137.642043 C255.179751,137.714864 256.287605,137.193574 256.486208,136.447606 L256.562194,127.727772 L256.599324,113.551713 L251.19303,113.257766 Z" id="Fill-7" fill="#909295"></path>
                            <path d="M20.9998383,112.565703 L20.9627084,126.741762 L20.9920669,135.466924 C21.187215,136.234206 22.2924788,136.877159 23.639519,136.94998 C24.9874226,137.023689 26.0944133,136.501511 26.2930154,135.755543 L26.3690023,127.035709 L26.4061323,112.85965 L20.9998383,112.565703 Z" id="Fill-9" fill="#909295"></path>
                            <path d="M38.5609248,112.772087 L38.5237949,126.948146 L38.5531534,135.673309 C38.7483016,136.440591 39.8527018,137.082656 41.2006055,137.155477 C42.5476456,137.229185 43.6554998,136.707008 43.8541019,135.96104 L43.9300888,127.242093 L43.9672188,113.066034 L38.5609248,112.772087 Z" id="Fill-11" fill="#909295"></path>
                            <path d="M133.778964,112.762585 L133.741834,126.937756 L133.771193,135.662919 C133.966341,136.431088 135.070741,137.073154 136.418645,137.145974 C137.765685,137.219683 138.873539,136.697505 139.072141,135.951537 L139.148128,127.231703 L139.185258,113.055644 L133.778964,112.762585 Z" id="Fill-13" fill="#909295"></path>
                            <path d="M152.505413,112.764272 L152.468283,126.940331 L152.497642,135.665494 C152.69279,136.432776 153.79719,137.074841 155.145094,137.14855 C156.492134,137.22137 157.599988,136.700081 157.79859,135.953225 L157.874577,127.234278 L157.911707,113.058219 L152.505413,112.764272 Z" id="Fill-15" fill="#909295"></path>
                            <polygon id="Fill-17" fill="#E8E8E7" points="186.053276 0.631408739 186.053276 26.8468602 199.831079 26.8468602 203.05275 23.9260397 211.489885 23.9260397 211.489885 26.8468602 225.267688 26.8468602 225.267688 0.631408739"></polygon>
                            <mask id="mask-2" fill="white">
                                <use xlink:href="#path-1"></use>
                            </mask>
                            <g id="Clip-20"></g>
                            <polygon id="Fill-19" fill="#909295" mask="url(#mask-2)" points="200.139949 26.8468602 211.490489 26.8468602 211.490489 10.7366127 200.139949 10.7366127"></polygon>
                            <polygon id="Fill-21" fill="#CBCBCA" mask="url(#mask-2)" points="181.918381 0.631408739 181.900247 5.38873169 229.420544 5.38873169 229.420544 0.631408739"></polygon>
                            <polygon id="Fill-22" fill="#E8E8E7" mask="url(#mask-2)" points="95.2319413 62.5873478 84.211253 62.5873478 83.9228482 53.9305653 94.9444001 53.9305653"></polygon>
                            <polygon id="Fill-23" fill="#E8E8E7" mask="url(#mask-2)" points="210.069448 62.1606363 199.04876 62.1606363 198.760355 53.5038537 209.781907 53.5038537"></polygon>
                            <polygon id="Fill-24" fill="#909295" mask="url(#mask-2)" points="75.7183374 95.6508755 103.528673 95.6508755 103.528673 93.6447541 75.7183374 93.6447541"></polygon>
                            <polygon id="Fill-25" fill="#E8E8E7" mask="url(#mask-2)" points="75.7183374 93.6447541 103.528673 93.6447541 103.528673 89.9522118 75.7183374 89.9522118"></polygon>
                            <polygon id="Fill-26" fill="#909295" mask="url(#mask-2)" points="191.755487 95.6508755 219.564959 95.6508755 219.564959 93.6447541 191.755487 93.6447541"></polygon>
                            <polygon id="Fill-27" fill="#E8E8E7" mask="url(#mask-2)" points="191.755487 93.6447541 219.564959 93.6447541 219.564959 89.9522118 191.755487 89.9522118"></polygon>
                        </g>
                    </g>
                </g>
            </g>
        </g>
    </g>
</svg>