<?xml version="1.0" encoding="UTF-8"?>
<svg viewBox="0 0 405 230" version="1.1" xmlns="http://www.w3.org/2000/svg" xmlns:xlink="http://www.w3.org/1999/xlink">
    <!-- Generator: Sketch 42 (36781) - http://www.bohemiancoding.com/sketch -->
    <title>Art - City</title>
    <desc>Created with Sketch.</desc>
    <defs></defs>
    <g id="Homepage" stroke="none" stroke-width="1" fill="none" fill-rule="evenodd" opacity="0.7">
        <g id="Homepage-Desktop" transform="translate(-598.000000, -887.000000)">
            <g id="Art---City" transform="translate(598.000000, 887.000000)">
                <polygon id="Fill-1" fill="#EDEDED" points="355.846 228.229 404.032 228.229 404.032 79.416 355.846 79.416"></polygon>
                <polygon id="Fill-2" fill="#9D9D9C" points="117.0083 45.5934 77.7683 78.6124 77.7683 208.9554 117.0083 208.9554"></polygon>
                <polygon id="Fill-3" fill="#9D9D9C" points="117.0083 45.5934 77.7683 78.6124 77.7683 228.9554 117.0083 228.9554"></polygon>
                <polygon id="Fill-4" fill="#DADADA" points="84.792 96.282 88.346 96.282 88.346 87.186 84.792 87.186"></polygon>
                <polygon id="Fill-5" fill="#DADADA" points="90.284 96.282 93.837 96.282 93.837 87.186 90.284 87.186"></polygon>
                <polygon id="Fill-6" fill="#DADADA" points="95.776 96.282 99.329 96.282 99.329 87.186 95.776 87.186"></polygon>
                <polygon id="Fill-7" fill="#DADADA" points="101.267 96.282 104.821 96.282 104.821 87.186 101.267 87.186"></polygon>
                <polygon id="Fill-8" fill="#DADADA" points="106.759 96.282 110.313 96.282 110.313 87.186 106.759 87.186"></polygon>
                <polygon id="Fill-9" fill="#DADADA" points="84.792 107.917 88.346 107.917 88.346 98.821 84.792 98.821"></polygon>
                <polygon id="Fill-10" fill="#DADADA" points="90.284 107.917 93.837 107.917 93.837 98.821 90.284 98.821"></polygon>
                <polygon id="Fill-11" fill="#DADADA" points="95.776 107.917 99.329 107.917 99.329 98.821 95.776 98.821"></polygon>
                <polygon id="Fill-12" fill="#DADADA" points="101.267 107.917 104.821 107.917 104.821 98.821 101.267 98.821"></polygon>
                <polygon id="Fill-13" fill="#DADADA" points="106.759 107.917 110.313 107.917 110.313 98.821 106.759 98.821"></polygon>
                <polygon id="Fill-14" fill="#DADADA" points="84.792 119.551 88.346 119.551 88.346 110.455 84.792 110.455"></polygon>
                <polygon id="Fill-15" fill="#DADADA" points="90.284 119.551 93.837 119.551 93.837 110.455 90.284 110.455"></polygon>
                <polygon id="Fill-16" fill="#DADADA" points="95.776 119.551 99.329 119.551 99.329 110.455 95.776 110.455"></polygon>
                <polygon id="Fill-17" fill="#DADADA" points="101.267 119.551 104.821 119.551 104.821 110.455 101.267 110.455"></polygon>
                <polygon id="Fill-18" fill="#DADADA" points="106.759 119.551 110.313 119.551 110.313 110.455 106.759 110.455"></polygon>
                <polygon id="Fill-19" fill="#DADADA" points="84.792 131.186 88.346 131.186 88.346 122.09 84.792 122.09"></polygon>
                <polygon id="Fill-20" fill="#DADADA" points="90.284 131.186 93.837 131.186 93.837 122.09 90.284 122.09"></polygon>
                <polygon id="Fill-21" fill="#DADADA" points="95.776 131.186 99.329 131.186 99.329 122.09 95.776 122.09"></polygon>
                <polygon id="Fill-22" fill="#DADADA" points="101.267 131.186 104.821 131.186 104.821 122.09 101.267 122.09"></polygon>
                <polygon id="Fill-23" fill="#DADADA" points="106.759 131.186 110.313 131.186 110.313 122.09 106.759 122.09"></polygon>
                <polygon id="Fill-24" fill="#DADADA" points="84.792 142.82 88.346 142.82 88.346 133.725 84.792 133.725"></polygon>
                <polygon id="Fill-25" fill="#DADADA" points="90.284 142.82 93.837 142.82 93.837 133.725 90.284 133.725"></polygon>
                <polygon id="Fill-26" fill="#DADADA" points="95.776 142.82 99.329 142.82 99.329 133.725 95.776 133.725"></polygon>
                <polygon id="Fill-27" fill="#DADADA" points="101.267 142.82 104.821 142.82 104.821 133.725 101.267 133.725"></polygon>
                <polygon id="Fill-28" fill="#DADADA" points="106.759 142.82 110.313 142.82 110.313 133.725 106.759 133.725"></polygon>
                <polygon id="Fill-29" fill="#DADADA" points="84.792 154.456 88.346 154.456 88.346 145.359 84.792 145.359"></polygon>
                <polygon id="Fill-30" fill="#DADADA" points="90.284 154.456 93.837 154.456 93.837 145.359 90.284 145.359"></polygon>
                <polygon id="Fill-31" fill="#DADADA" points="95.776 154.456 99.329 154.456 99.329 145.359 95.776 145.359"></polygon>
                <polygon id="Fill-32" fill="#DADADA" points="101.267 154.456 104.821 154.456 104.821 145.359 101.267 145.359"></polygon>
                <polygon id="Fill-33" fill="#DADADA" points="106.759 154.456 110.313 154.456 110.313 145.359 106.759 145.359"></polygon>
                <polygon id="Fill-34" fill="#DADADA" points="84.792 166.089 88.346 166.089 88.346 156.993 84.792 156.993"></polygon>
                <polygon id="Fill-35" fill="#DADADA" points="90.284 166.089 93.837 166.089 93.837 156.993 90.284 156.993"></polygon>
                <polygon id="Fill-36" fill="#DADADA" points="95.776 166.089 99.329 166.089 99.329 156.993 95.776 156.993"></polygon>
                <polygon id="Fill-37" fill="#DADADA" points="101.267 166.089 104.821 166.089 104.821 156.993 101.267 156.993"></polygon>
                <polygon id="Fill-38" fill="#DADADA" points="106.759 166.089 110.313 166.089 110.313 156.993 106.759 156.993"></polygon>
                <polygon id="Fill-39" fill="#DADADA" points="84.792 177.279 88.346 177.279 88.346 168.183 84.792 168.183"></polygon>
                <polygon id="Fill-40" fill="#DADADA" points="90.284 177.279 93.837 177.279 93.837 168.183 90.284 168.183"></polygon>
                <polygon id="Fill-41" fill="#DADADA" points="95.776 177.279 99.329 177.279 99.329 168.183 95.776 168.183"></polygon>
                <polygon id="Fill-42" fill="#DADADA" points="101.267 177.279 104.821 177.279 104.821 168.183 101.267 168.183"></polygon>
                <polygon id="Fill-43" fill="#DADADA" points="106.759 177.279 110.313 177.279 110.313 168.183 106.759 168.183"></polygon>
                <polygon id="Fill-44" fill="#DADADA" points="84.792 188.914 88.346 188.914 88.346 179.818 84.792 179.818"></polygon>
                <polygon id="Fill-45" fill="#DADADA" points="90.284 188.914 93.837 188.914 93.837 179.818 90.284 179.818"></polygon>
                <polygon id="Fill-46" fill="#DADADA" points="95.776 188.914 99.329 188.914 99.329 179.818 95.776 179.818"></polygon>
                <polygon id="Fill-47" fill="#DADADA" points="101.267 188.914 104.821 188.914 104.821 179.818 101.267 179.818"></polygon>
                <polygon id="Fill-48" fill="#DADADA" points="106.759 188.914 110.313 188.914 110.313 179.818 106.759 179.818"></polygon>
                <polygon id="Fill-49" fill="#DADADA" points="84.792 200.548 88.346 200.548 88.346 191.452 84.792 191.452"></polygon>
                <polygon id="Fill-50" fill="#DADADA" points="90.284 200.548 93.837 200.548 93.837 191.452 90.284 191.452"></polygon>
                <polygon id="Fill-51" fill="#DADADA" points="95.776 200.548 99.329 200.548 99.329 191.452 95.776 191.452"></polygon>
                <polygon id="Fill-52" fill="#DADADA" points="101.267 200.548 104.821 200.548 104.821 191.452 101.267 191.452"></polygon>
                <polygon id="Fill-53" fill="#DADADA" points="106.759 200.548 110.313 200.548 110.313 191.452 106.759 191.452"></polygon>
                <polygon id="Fill-54" fill="#EDEDED" points="78.3926 45.5934 39.1526 78.6124 39.1526 208.9554 78.3926 208.9554"></polygon>
                <polygon id="Fill-55" fill="#EDEDED" points="78.3926 45.5934 39.1526 78.6124 39.1526 228.9554 78.3926 228.9554"></polygon>
                <polygon id="Fill-56" fill="#9D9D9C" points="46.176 96.282 49.73 96.282 49.73 87.186 46.176 87.186"></polygon>
                <polygon id="Fill-57" fill="#9D9D9C" points="51.669 96.282 55.222 96.282 55.222 87.186 51.669 87.186"></polygon>
                <polygon id="Fill-58" fill="#9D9D9C" points="57.16 96.282 60.713 96.282 60.713 87.186 57.16 87.186"></polygon>
                <polygon id="Fill-59" fill="#9D9D9C" points="62.652 96.282 66.206 96.282 66.206 87.186 62.652 87.186"></polygon>
                <polygon id="Fill-60" fill="#9D9D9C" points="68.143 96.282 71.697 96.282 71.697 87.186 68.143 87.186"></polygon>
                <polygon id="Fill-61" fill="#9D9D9C" points="46.176 107.917 49.73 107.917 49.73 98.821 46.176 98.821"></polygon>
                <polygon id="Fill-62" fill="#9D9D9C" points="51.669 107.917 55.222 107.917 55.222 98.821 51.669 98.821"></polygon>
                <polygon id="Fill-63" fill="#9D9D9C" points="57.16 107.917 60.713 107.917 60.713 98.821 57.16 98.821"></polygon>
                <polygon id="Fill-64" fill="#9D9D9C" points="62.652 107.917 66.206 107.917 66.206 98.821 62.652 98.821"></polygon>
                <polygon id="Fill-65" fill="#9D9D9C" points="68.143 107.917 71.697 107.917 71.697 98.821 68.143 98.821"></polygon>
                <polygon id="Fill-66" fill="#9D9D9C" points="46.176 119.551 49.73 119.551 49.73 110.455 46.176 110.455"></polygon>
                <polygon id="Fill-67" fill="#9D9D9C" points="51.669 119.551 55.222 119.551 55.222 110.455 51.669 110.455"></polygon>
                <polygon id="Fill-68" fill="#9D9D9C" points="57.16 119.551 60.713 119.551 60.713 110.455 57.16 110.455"></polygon>
                <polygon id="Fill-69" fill="#9D9D9C" points="62.652 119.551 66.206 119.551 66.206 110.455 62.652 110.455"></polygon>
                <polygon id="Fill-70" fill="#9D9D9C" points="68.143 119.551 71.697 119.551 71.697 110.455 68.143 110.455"></polygon>
                <polygon id="Fill-71" fill="#9D9D9C" points="46.176 131.186 49.73 131.186 49.73 122.09 46.176 122.09"></polygon>
                <polygon id="Fill-72" fill="#9D9D9C" points="51.669 131.186 55.222 131.186 55.222 122.09 51.669 122.09"></polygon>
                <polygon id="Fill-73" fill="#9D9D9C" points="57.16 131.186 60.713 131.186 60.713 122.09 57.16 122.09"></polygon>
                <polygon id="Fill-74" fill="#9D9D9C" points="62.652 131.186 66.206 131.186 66.206 122.09 62.652 122.09"></polygon>
                <polygon id="Fill-75" fill="#9D9D9C" points="68.143 131.186 71.697 131.186 71.697 122.09 68.143 122.09"></polygon>
                <polygon id="Fill-76" fill="#9D9D9C" points="46.176 142.82 49.73 142.82 49.73 133.725 46.176 133.725"></polygon>
                <polygon id="Fill-77" fill="#9D9D9C" points="51.669 142.82 55.222 142.82 55.222 133.725 51.669 133.725"></polygon>
                <polygon id="Fill-78" fill="#9D9D9C" points="57.16 142.82 60.713 142.82 60.713 133.725 57.16 133.725"></polygon>
                <polygon id="Fill-79" fill="#9D9D9C" points="62.652 142.82 66.206 142.82 66.206 133.725 62.652 133.725"></polygon>
                <polygon id="Fill-80" fill="#9D9D9C" points="68.143 142.82 71.697 142.82 71.697 133.725 68.143 133.725"></polygon>
                <polygon id="Fill-81" fill="#9D9D9C" points="46.176 154.456 49.73 154.456 49.73 145.359 46.176 145.359"></polygon>
                <polygon id="Fill-82" fill="#9D9D9C" points="51.669 154.456 55.222 154.456 55.222 145.359 51.669 145.359"></polygon>
                <polygon id="Fill-83" fill="#9D9D9C" points="57.16 154.456 60.713 154.456 60.713 145.359 57.16 145.359"></polygon>
                <polygon id="Fill-84" fill="#9D9D9C" points="62.652 154.456 66.206 154.456 66.206 145.359 62.652 145.359"></polygon>
                <polygon id="Fill-85" fill="#9D9D9C" points="68.143 154.456 71.697 154.456 71.697 145.359 68.143 145.359"></polygon>
                <polygon id="Fill-86" fill="#9D9D9C" points="46.176 166.089 49.73 166.089 49.73 156.993 46.176 156.993"></polygon>
                <polygon id="Fill-87" fill="#9D9D9C" points="51.669 166.089 55.222 166.089 55.222 156.993 51.669 156.993"></polygon>
                <polygon id="Fill-88" fill="#9D9D9C" points="57.16 166.089 60.713 166.089 60.713 156.993 57.16 156.993"></polygon>
                <polygon id="Fill-89" fill="#9D9D9C" points="62.652 166.089 66.206 166.089 66.206 156.993 62.652 156.993"></polygon>
                <polygon id="Fill-90" fill="#9D9D9C" points="68.143 166.089 71.697 166.089 71.697 156.993 68.143 156.993"></polygon>
                <polygon id="Fill-91" fill="#9D9D9C" points="46.176 177.279 49.73 177.279 49.73 168.183 46.176 168.183"></polygon>
                <polygon id="Fill-92" fill="#9D9D9C" points="51.669 177.279 55.222 177.279 55.222 168.183 51.669 168.183"></polygon>
                <polygon id="Fill-93" fill="#9D9D9C" points="57.16 177.279 60.713 177.279 60.713 168.183 57.16 168.183"></polygon>
                <polygon id="Fill-94" fill="#9D9D9C" points="62.652 177.279 66.206 177.279 66.206 168.183 62.652 168.183"></polygon>
                <polygon id="Fill-95" fill="#9D9D9C" points="68.143 177.279 71.697 177.279 71.697 168.183 68.143 168.183"></polygon>
                <polygon id="Fill-96" fill="#9D9D9C" points="46.176 188.914 49.73 188.914 49.73 179.818 46.176 179.818"></polygon>
                <polygon id="Fill-97" fill="#9D9D9C" points="51.669 188.914 55.222 188.914 55.222 179.818 51.669 179.818"></polygon>
                <polygon id="Fill-98" fill="#9D9D9C" points="57.16 188.914 60.713 188.914 60.713 179.818 57.16 179.818"></polygon>
                <polygon id="Fill-99" fill="#9D9D9C" points="62.652 188.914 66.206 188.914 66.206 179.818 62.652 179.818"></polygon>
                <polygon id="Fill-100" fill="#9D9D9C" points="68.143 188.914 71.697 188.914 71.697 179.818 68.143 179.818"></polygon>
                <polygon id="Fill-101" fill="#9D9D9C" points="46.176 200.548 49.73 200.548 49.73 191.452 46.176 191.452"></polygon>
                <polygon id="Fill-102" fill="#9D9D9C" points="51.669 200.548 55.222 200.548 55.222 191.452 51.669 191.452"></polygon>
                <polygon id="Fill-103" fill="#9D9D9C" points="57.16 200.548 60.713 200.548 60.713 191.452 57.16 191.452"></polygon>
                <polygon id="Fill-104" fill="#9D9D9C" points="62.652 200.548 66.206 200.548 66.206 191.452 62.652 191.452"></polygon>
                <polygon id="Fill-105" fill="#9D9D9C" points="68.143 200.548 71.697 200.548 71.697 191.452 68.143 191.452"></polygon>
                <polygon id="Fill-106" fill="#DADADA" points="0 78.612 0 208.955 39.24 208.955 39.24 45.594"></polygon>
                <polygon id="Fill-107" fill="#DADADA" points="0 78.612 0 229.956 39.24 229.956 39.24 45.594"></polygon>
                <polygon id="Fill-108" fill="#FFFFFF" points="7.024 96.282 10.578 96.282 10.578 87.186 7.024 87.186"></polygon>
                <polygon id="Fill-109" fill="#FFFFFF" points="12.516 96.282 16.069 96.282 16.069 87.186 12.516 87.186"></polygon>
                <polygon id="Fill-110" fill="#FFFFFF" points="18.008 96.282 21.561 96.282 21.561 87.186 18.008 87.186"></polygon>
                <polygon id="Fill-111" fill="#FFFFFF" points="23.499 96.282 27.053 96.282 27.053 87.186 23.499 87.186"></polygon>
                <polygon id="Fill-112" fill="#FFFFFF" points="28.99 96.282 32.544 96.282 32.544 87.186 28.99 87.186"></polygon>
                <polygon id="Fill-113" fill="#FFFFFF" points="7.024 107.917 10.578 107.917 10.578 98.821 7.024 98.821"></polygon>
                <polygon id="Fill-114" fill="#FFFFFF" points="12.516 107.917 16.069 107.917 16.069 98.821 12.516 98.821"></polygon>
                <polygon id="Fill-115" fill="#FFFFFF" points="18.008 107.917 21.561 107.917 21.561 98.821 18.008 98.821"></polygon>
                <polygon id="Fill-116" fill="#FFFFFF" points="23.499 107.917 27.053 107.917 27.053 98.821 23.499 98.821"></polygon>
                <polygon id="Fill-117" fill="#FFFFFF" points="28.99 107.917 32.544 107.917 32.544 98.821 28.99 98.821"></polygon>
                <polygon id="Fill-118" fill="#FFFFFF" points="7.024 119.551 10.578 119.551 10.578 110.455 7.024 110.455"></polygon>
                <polygon id="Fill-119" fill="#FFFFFF" points="12.516 119.551 16.069 119.551 16.069 110.455 12.516 110.455"></polygon>
                <polygon id="Fill-120" fill="#FFFFFF" points="18.008 119.551 21.561 119.551 21.561 110.455 18.008 110.455"></polygon>
                <polygon id="Fill-121" fill="#FFFFFF" points="23.499 119.551 27.053 119.551 27.053 110.455 23.499 110.455"></polygon>
                <polygon id="Fill-122" fill="#FFFFFF" points="28.99 119.551 32.544 119.551 32.544 110.455 28.99 110.455"></polygon>
                <polygon id="Fill-123" fill="#FFFFFF" points="7.024 131.186 10.578 131.186 10.578 122.09 7.024 122.09"></polygon>
                <polygon id="Fill-124" fill="#FFFFFF" points="12.516 131.186 16.069 131.186 16.069 122.09 12.516 122.09"></polygon>
                <polygon id="Fill-125" fill="#FFFFFF" points="18.008 131.186 21.561 131.186 21.561 122.09 18.008 122.09"></polygon>
                <polygon id="Fill-126" fill="#FFFFFF" points="23.499 131.186 27.053 131.186 27.053 122.09 23.499 122.09"></polygon>
                <polygon id="Fill-127" fill="#FFFFFF" points="28.99 131.186 32.544 131.186 32.544 122.09 28.99 122.09"></polygon>
                <polygon id="Fill-128" fill="#FFFFFF" points="7.024 142.82 10.578 142.82 10.578 133.725 7.024 133.725"></polygon>
                <polygon id="Fill-129" fill="#FFFFFF" points="12.516 142.82 16.069 142.82 16.069 133.725 12.516 133.725"></polygon>
                <polygon id="Fill-130" fill="#FFFFFF" points="18.008 142.82 21.561 142.82 21.561 133.725 18.008 133.725"></polygon>
                <polygon id="Fill-131" fill="#FFFFFF" points="23.499 142.82 27.053 142.82 27.053 133.725 23.499 133.725"></polygon>
                <polygon id="Fill-132" fill="#FFFFFF" points="28.99 142.82 32.544 142.82 32.544 133.725 28.99 133.725"></polygon>
                <polygon id="Fill-133" fill="#FFFFFF" points="7.024 154.456 10.578 154.456 10.578 145.359 7.024 145.359"></polygon>
                <polygon id="Fill-134" fill="#FFFFFF" points="12.516 154.456 16.069 154.456 16.069 145.359 12.516 145.359"></polygon>
                <polygon id="Fill-135" fill="#FFFFFF" points="18.008 154.456 21.561 154.456 21.561 145.359 18.008 145.359"></polygon>
                <polygon id="Fill-136" fill="#FFFFFF" points="23.499 154.456 27.053 154.456 27.053 145.359 23.499 145.359"></polygon>
                <polygon id="Fill-137" fill="#FFFFFF" points="28.99 154.456 32.544 154.456 32.544 145.359 28.99 145.359"></polygon>
                <polygon id="Fill-138" fill="#FFFFFF" points="7.024 166.089 10.578 166.089 10.578 156.993 7.024 156.993"></polygon>
                <polygon id="Fill-139" fill="#FFFFFF" points="12.516 166.089 16.069 166.089 16.069 156.993 12.516 156.993"></polygon>
                <polygon id="Fill-140" fill="#FFFFFF" points="18.008 166.089 21.561 166.089 21.561 156.993 18.008 156.993"></polygon>
                <polygon id="Fill-141" fill="#FFFFFF" points="23.499 166.089 27.053 166.089 27.053 156.993 23.499 156.993"></polygon>
                <polygon id="Fill-142" fill="#FFFFFF" points="28.99 166.089 32.544 166.089 32.544 156.993 28.99 156.993"></polygon>
                <polygon id="Fill-143" fill="#FFFFFF" points="7.024 177.279 10.578 177.279 10.578 168.183 7.024 168.183"></polygon>
                <polygon id="Fill-144" fill="#FFFFFF" points="12.516 177.279 16.069 177.279 16.069 168.183 12.516 168.183"></polygon>
                <polygon id="Fill-145" fill="#FFFFFF" points="18.008 177.279 21.561 177.279 21.561 168.183 18.008 168.183"></polygon>
                <polygon id="Fill-146" fill="#FFFFFF" points="23.499 177.279 27.053 177.279 27.053 168.183 23.499 168.183"></polygon>
                <polygon id="Fill-147" fill="#FFFFFF" points="28.99 177.279 32.544 177.279 32.544 168.183 28.99 168.183"></polygon>
                <polygon id="Fill-148" fill="#FFFFFF" points="7.024 188.914 10.578 188.914 10.578 179.818 7.024 179.818"></polygon>
                <polygon id="Fill-149" fill="#FFFFFF" points="12.516 188.914 16.069 188.914 16.069 179.818 12.516 179.818"></polygon>
                <polygon id="Fill-150" fill="#FFFFFF" points="18.008 188.914 21.561 188.914 21.561 179.818 18.008 179.818"></polygon>
                <polygon id="Fill-151" fill="#FFFFFF" points="23.499 188.914 27.053 188.914 27.053 179.818 23.499 179.818"></polygon>
                <polygon id="Fill-152" fill="#FFFFFF" points="28.99 188.914 32.544 188.914 32.544 179.818 28.99 179.818"></polygon>
                <polygon id="Fill-153" fill="#FFFFFF" points="7.024 200.548 10.578 200.548 10.578 191.452 7.024 191.452"></polygon>
                <polygon id="Fill-154" fill="#FFFFFF" points="12.516 200.548 16.069 200.548 16.069 191.452 12.516 191.452"></polygon>
                <polygon id="Fill-155" fill="#FFFFFF" points="18.008 200.548 21.561 200.548 21.561 191.452 18.008 191.452"></polygon>
                <polygon id="Fill-156" fill="#FFFFFF" points="23.499 200.548 27.053 200.548 27.053 191.452 23.499 191.452"></polygon>
                <polygon id="Fill-157" fill="#FFFFFF" points="28.99 200.548 32.544 200.548 32.544 191.452 28.99 191.452"></polygon>
                <polygon id="Fill-158" fill="#DADADA" points="381.5269 62.1393 381.5269 45.7433 378.4599 48.5773 378.4599 62.1393 365.0279 62.1393 365.0279 80.7143 394.9579 80.7143 394.9579 62.1393"></polygon>
                <polygon id="Fill-159" fill="#DADADA" points="384.3384 79.3532 403.9144 79.3532 403.9144 86.8792 384.3384 86.8792 384.3384 92.5752 403.9144 92.5752 403.9144 100.0992 384.3384 100.0992 384.3384 105.7952 403.9144 105.7952 403.9144 113.3212 384.3384 113.3212 384.3384 119.0172 403.9144 119.0172 403.9144 126.5412 384.3384 126.5412 384.3384 132.2372 403.9144 132.2372 403.9144 139.7622 384.3384 139.7622 384.3384 145.4572 403.9144 145.4572 403.9144 147.2512 403.9144 149.5242 403.9144 152.6712 384.3384 152.6712 384.3384 158.3672 403.9144 158.3672 403.9144 165.8922 384.3384 165.8922 384.3384 171.5872 403.9144 171.5872 403.9144 179.1132 384.3384 179.1132 384.3384 184.8092 403.9144 184.8092 403.9144 192.3332 384.3384 192.3332 384.3384 198.0302 403.9144 198.0302 403.9144 205.5542 384.3384 205.5542 384.3384 211.2502 403.9144 211.2502 403.9144 218.7752 384.3384 218.7752 384.3384 224.4712 403.9144 224.4712 403.9144 228.5372 356.0714 228.5372 356.0714 224.4712 375.6494 224.4712 375.6494 218.7752 356.0714 218.7752 356.0714 211.2502 375.6494 211.2502 375.6494 205.5542 356.0714 205.5542 356.0714 198.0302 375.6494 198.0302 375.6494 192.3332 356.0714 192.3332 356.0714 184.8092 375.6494 184.8092 375.6494 179.1132 356.0714 179.1132 356.0714 171.5872 375.6494 171.5872 375.6494 165.8922 356.0714 165.8922 356.0714 158.3672 375.6494 158.3672 375.6494 152.6712 356.0714 152.6712 356.0714 149.5242 356.0714 147.2512 356.0714 145.4572 375.6494 145.4572 375.6494 139.7622 356.0714 139.7622 356.0714 132.2372 375.6494 132.2372 375.6494 126.5412 356.0714 126.5412 356.0714 119.0172 375.6494 119.0172 375.6494 113.3212 356.0714 113.3212 356.0714 105.7952 375.6494 105.7952 375.6494 100.0992 356.0714 100.0992 356.0714 92.5752 375.6494 92.5752 375.6494 86.8792 356.0714 86.8792 356.0714 79.3532 375.6494 79.3532"></polygon>
                <polygon id="Fill-160" fill="#9D9D9C" points="195.947 228.183 245.642 228.183 245.642 0 195.947 0"></polygon>
                <polygon id="Fill-161" fill="#DADADA" points="200.971 8.879 240.62 8.879 240.62 6.401 200.971 6.401"></polygon>
                <polygon id="Fill-162" fill="#DADADA" points="200.971 17.609 240.62 17.609 240.62 15.13 200.971 15.13"></polygon>
                <polygon id="Fill-163" fill="#DADADA" points="200.971 26.339 240.62 26.339 240.62 23.861 200.971 23.861"></polygon>
                <polygon id="Fill-164" fill="#DADADA" points="200.971 35.068 240.62 35.068 240.62 32.59 200.971 32.59"></polygon>
                <polygon id="Fill-165" fill="#DADADA" points="200.971 43.798 240.62 43.798 240.62 41.319 200.971 41.319"></polygon>
                <polygon id="Fill-166" fill="#DADADA" points="200.971 52.527 240.62 52.527 240.62 50.049 200.971 50.049"></polygon>
                <polygon id="Fill-167" fill="#DADADA" points="200.971 61.256 240.62 61.256 240.62 58.778 200.971 58.778"></polygon>
                <polygon id="Fill-168" fill="#DADADA" points="200.971 69.987 240.62 69.987 240.62 67.508 200.971 67.508"></polygon>
                <polygon id="Fill-169" fill="#DADADA" points="200.971 78.716 240.62 78.716 240.62 76.237 200.971 76.237"></polygon>
                <polygon id="Fill-170" fill="#DADADA" points="200.971 87.446 240.62 87.446 240.62 84.967 200.971 84.967"></polygon>
                <polygon id="Fill-171" fill="#DADADA" points="200.971 96.175 240.62 96.175 240.62 93.697 200.971 93.697"></polygon>
                <polygon id="Fill-172" fill="#DADADA" points="200.971 104.905 240.62 104.905 240.62 102.426 200.971 102.426"></polygon>
                <polygon id="Fill-173" fill="#DADADA" points="200.971 113.634 240.62 113.634 240.62 111.156 200.971 111.156"></polygon>
                <polygon id="Fill-174" fill="#DADADA" points="200.971 122.364 240.62 122.364 240.62 119.886 200.971 119.886"></polygon>
                <polygon id="Fill-175" fill="#DADADA" points="200.971 131.094 240.62 131.094 240.62 128.615 200.971 128.615"></polygon>
                <polygon id="Fill-176" fill="#DADADA" points="200.971 139.824 240.62 139.824 240.62 137.345 200.971 137.345"></polygon>
                <polygon id="Fill-177" fill="#DADADA" points="200.971 148.553 240.62 148.553 240.62 146.074 200.971 146.074"></polygon>
                <polygon id="Fill-178" fill="#DADADA" points="200.971 157.283 240.62 157.283 240.62 154.805 200.971 154.805"></polygon>
                <polygon id="Fill-179" fill="#DADADA" points="200.971 166.012 240.62 166.012 240.62 163.533 200.971 163.533"></polygon>
                <polygon id="Fill-180" fill="#DADADA" points="200.971 174.742 240.62 174.742 240.62 172.264 200.971 172.264"></polygon>
                <polygon id="Fill-181" fill="#DADADA" points="200.971 183.471 240.62 183.471 240.62 180.993 200.971 180.993"></polygon>
                <polygon id="Fill-182" fill="#DADADA" points="200.971 192.202 240.62 192.202 240.62 189.723 200.971 189.723"></polygon>
                <polygon id="Fill-183" fill="#DADADA" points="200.971 200.93 240.62 200.93 240.62 198.452 200.971 198.452"></polygon>
                <polygon id="Fill-184" fill="#DADADA" points="200.971 209.661 240.62 209.661 240.62 207.182 200.971 207.182"></polygon>
                <polygon id="Fill-185" fill="#EDEDED" points="294.862 228.183 344.557 228.183 344.557 51.301 294.862 51.301"></polygon>
                <polygon id="Fill-186" fill="#9D9D9C" points="299.885 61.256 339.535 61.256 339.535 58.778 299.885 58.778"></polygon>
                <polygon id="Fill-187" fill="#9D9D9C" points="299.885 69.987 339.535 69.987 339.535 67.508 299.885 67.508"></polygon>
                <polygon id="Fill-188" fill="#9D9D9C" points="299.885 78.716 339.535 78.716 339.535 76.237 299.885 76.237"></polygon>
                <polygon id="Fill-189" fill="#9D9D9C" points="299.885 87.446 339.535 87.446 339.535 84.967 299.885 84.967"></polygon>
                <polygon id="Fill-190" fill="#9D9D9C" points="299.885 96.175 339.535 96.175 339.535 93.697 299.885 93.697"></polygon>
                <polygon id="Fill-191" fill="#9D9D9C" points="299.885 104.905 339.535 104.905 339.535 102.426 299.885 102.426"></polygon>
                <polygon id="Fill-192" fill="#9D9D9C" points="299.885 113.634 339.535 113.634 339.535 111.156 299.885 111.156"></polygon>
                <polygon id="Fill-193" fill="#9D9D9C" points="299.885 122.364 339.535 122.364 339.535 119.886 299.885 119.886"></polygon>
                <polygon id="Fill-194" fill="#9D9D9C" points="299.885 131.094 339.535 131.094 339.535 128.615 299.885 128.615"></polygon>
                <polygon id="Fill-195" fill="#9D9D9C" points="299.885 139.824 339.535 139.824 339.535 137.345 299.885 137.345"></polygon>
                <polygon id="Fill-196" fill="#9D9D9C" points="299.885 148.553 339.535 148.553 339.535 146.074 299.885 146.074"></polygon>
                <polygon id="Fill-197" fill="#9D9D9C" points="299.885 157.283 339.535 157.283 339.535 154.805 299.885 154.805"></polygon>
                <polygon id="Fill-198" fill="#9D9D9C" points="299.885 166.012 339.535 166.012 339.535 163.533 299.885 163.533"></polygon>
                <polygon id="Fill-199" fill="#9D9D9C" points="299.885 174.742 339.535 174.742 339.535 172.264 299.885 172.264"></polygon>
                <polygon id="Fill-200" fill="#9D9D9C" points="299.885 183.471 339.535 183.471 339.535 180.993 299.885 180.993"></polygon>
                <polygon id="Fill-201" fill="#9D9D9C" points="299.885 192.202 339.535 192.202 339.535 189.723 299.885 189.723"></polygon>
                <polygon id="Fill-202" fill="#9D9D9C" points="299.885 200.93 339.535 200.93 339.535 198.452 299.885 198.452"></polygon>
                <polygon id="Fill-203" fill="#9D9D9C" points="299.885 209.661 339.535 209.661 339.535 207.182 299.885 207.182"></polygon>
                <polygon id="Fill-204" fill="#DADADA" points="277.9468 73.233 277.9468 63.948 264.1618 51.761 250.3758 63.948 250.3758 73.233 239.3138 73.233 239.3138 228.183 289.0098 228.183 289.0098 73.233"></polygon>
                <polygon id="Fill-205" fill="#FFFFFF" points="257.015 75.886 261.971 75.886 261.971 64.25 257.015 64.25"></polygon>
                <polygon id="Fill-206" fill="#FFFFFF" points="266.351 75.886 271.308 75.886 271.308 64.25 266.351 64.25"></polygon>
                <polygon id="Fill-207" fill="#FFFFFF" points="247.756 94.705 252.712 94.705 252.712 83.069 247.756 83.069"></polygon>
                <polygon id="Fill-208" fill="#FFFFFF" points="257.092 94.705 262.049 94.705 262.049 83.069 257.092 83.069"></polygon>
                <polygon id="Fill-209" fill="#FFFFFF" points="266.275 94.705 271.231 94.705 271.231 83.069 266.275 83.069"></polygon>
                <polygon id="Fill-210" fill="#FFFFFF" points="275.612 94.705 280.567 94.705 280.567 83.069 275.612 83.069"></polygon>
                <polygon id="Fill-211" fill="#FFFFFF" points="247.756 110.724 252.712 110.724 252.712 99.087 247.756 99.087"></polygon>
                <polygon id="Fill-212" fill="#FFFFFF" points="257.092 110.724 262.049 110.724 262.049 99.087 257.092 99.087"></polygon>
                <polygon id="Fill-213" fill="#FFFFFF" points="266.275 110.724 271.231 110.724 271.231 99.087 266.275 99.087"></polygon>
                <polygon id="Fill-214" fill="#FFFFFF" points="275.612 110.724 280.567 110.724 280.567 99.087 275.612 99.087"></polygon>
                <polygon id="Fill-215" fill="#FFFFFF" points="247.756 126.743 252.712 126.743 252.712 115.107 247.756 115.107"></polygon>
                <polygon id="Fill-216" fill="#FFFFFF" points="257.092 126.743 262.049 126.743 262.049 115.107 257.092 115.107"></polygon>
                <polygon id="Fill-217" fill="#FFFFFF" points="266.275 126.743 271.231 126.743 271.231 115.107 266.275 115.107"></polygon>
                <polygon id="Fill-218" fill="#FFFFFF" points="275.612 126.743 280.567 126.743 280.567 115.107 275.612 115.107"></polygon>
                <polygon id="Fill-219" fill="#FFFFFF" points="247.756 142.762 252.712 142.762 252.712 131.125 247.756 131.125"></polygon>
                <polygon id="Fill-220" fill="#FFFFFF" points="257.092 142.762 262.049 142.762 262.049 131.125 257.092 131.125"></polygon>
                <polygon id="Fill-221" fill="#FFFFFF" points="266.275 142.762 271.231 142.762 271.231 131.125 266.275 131.125"></polygon>
                <polygon id="Fill-222" fill="#FFFFFF" points="275.612 142.762 280.567 142.762 280.567 131.125 275.612 131.125"></polygon>
                <polygon id="Fill-223" fill="#FFFFFF" points="247.756 158.781 252.712 158.781 252.712 147.145 247.756 147.145"></polygon>
                <polygon id="Fill-224" fill="#FFFFFF" points="257.092 158.781 262.049 158.781 262.049 147.145 257.092 147.145"></polygon>
                <polygon id="Fill-225" fill="#FFFFFF" points="266.275 158.781 271.231 158.781 271.231 147.145 266.275 147.145"></polygon>
                <polygon id="Fill-226" fill="#FFFFFF" points="275.612 158.781 280.567 158.781 280.567 147.145 275.612 147.145"></polygon>
                <polygon id="Fill-227" fill="#FFFFFF" points="247.756 174.8 252.712 174.8 252.712 163.163 247.756 163.163"></polygon>
                <polygon id="Fill-228" fill="#FFFFFF" points="257.092 174.8 262.049 174.8 262.049 163.163 257.092 163.163"></polygon>
                <polygon id="Fill-229" fill="#FFFFFF" points="266.275 174.8 271.231 174.8 271.231 163.163 266.275 163.163"></polygon>
                <polygon id="Fill-230" fill="#FFFFFF" points="275.612 174.8 280.567 174.8 280.567 163.163 275.612 163.163"></polygon>
                <polygon id="Fill-231" fill="#FFFFFF" points="247.756 190.82 252.712 190.82 252.712 179.183 247.756 179.183"></polygon>
                <polygon id="Fill-232" fill="#FFFFFF" points="257.092 190.82 262.049 190.82 262.049 179.183 257.092 179.183"></polygon>
                <polygon id="Fill-233" fill="#FFFFFF" points="266.275 190.82 271.231 190.82 271.231 179.183 266.275 179.183"></polygon>
                <polygon id="Fill-234" fill="#FFFFFF" points="275.612 190.82 280.567 190.82 280.567 179.183 275.612 179.183"></polygon>
                <polygon id="Fill-235" fill="#FFFFFF" points="247.756 206.839 252.712 206.839 252.712 195.202 247.756 195.202"></polygon>
                <polygon id="Fill-236" fill="#FFFFFF" points="257.092 206.839 262.049 206.839 262.049 195.202 257.092 195.202"></polygon>
                <polygon id="Fill-237" fill="#FFFFFF" points="266.275 206.839 271.231 206.839 271.231 195.202 266.275 195.202"></polygon>
                <polygon id="Fill-238" fill="#FFFFFF" points="275.612 206.839 280.567 206.839 280.567 195.202 275.612 195.202"></polygon>
                <polygon id="Fill-239" fill="#EDEDED" points="175.5386 50.7174 175.5386 38.7384 170.5816 38.7384 170.5816 27.3154 137.7476 27.3154 137.7476 38.7384 132.7906 38.7384 132.7906 50.7174 127.8346 50.7174 127.8346 228.9324 181.7336 228.9324 181.7336 50.7174"></polygon>
                <polygon id="Fill-240" fill="#FFFFFF" points="135.284 74.165 141.938 74.165 141.938 59.457 135.284 59.457"></polygon>
                <polygon id="Fill-241" fill="#FFFFFF" points="145.653 74.165 152.307 74.165 152.307 59.457 145.653 59.457"></polygon>
                <polygon id="Fill-242" fill="#FFFFFF" points="156.023 74.165 162.677 74.165 162.677 59.457 156.023 59.457"></polygon>
                <polygon id="Fill-243" fill="#FFFFFF" points="166.392 74.165 173.046 74.165 173.046 59.457 166.392 59.457"></polygon>
                <polygon id="Fill-244" fill="#FFFFFF" points="135.284 94.239 141.938 94.239 141.938 79.531 135.284 79.531"></polygon>
                <polygon id="Fill-245" fill="#FFFFFF" points="145.653 94.239 152.307 94.239 152.307 79.531 145.653 79.531"></polygon>
                <polygon id="Fill-246" fill="#FFFFFF" points="156.023 94.239 162.677 94.239 162.677 79.531 156.023 79.531"></polygon>
                <polygon id="Fill-247" fill="#FFFFFF" points="166.392 94.239 173.046 94.239 173.046 79.531 166.392 79.531"></polygon>
                <polygon id="Fill-248" fill="#FFFFFF" points="135.284 114.313 141.938 114.313 141.938 99.605 135.284 99.605"></polygon>
                <polygon id="Fill-249" fill="#FFFFFF" points="145.653 114.313 152.307 114.313 152.307 99.605 145.653 99.605"></polygon>
                <polygon id="Fill-250" fill="#FFFFFF" points="156.023 114.313 162.677 114.313 162.677 99.605 156.023 99.605"></polygon>
                <polygon id="Fill-251" fill="#FFFFFF" points="166.392 114.313 173.046 114.313 173.046 99.605 166.392 99.605"></polygon>
                <polygon id="Fill-252" fill="#FFFFFF" points="135.284 134.387 141.938 134.387 141.938 119.679 135.284 119.679"></polygon>
                <polygon id="Fill-253" fill="#FFFFFF" points="145.653 134.387 152.307 134.387 152.307 119.679 145.653 119.679"></polygon>
                <polygon id="Fill-254" fill="#FFFFFF" points="156.023 134.387 162.677 134.387 162.677 119.679 156.023 119.679"></polygon>
                <polygon id="Fill-255" fill="#FFFFFF" points="166.392 134.387 173.046 134.387 173.046 119.679 166.392 119.679"></polygon>
                <polygon id="Fill-256" fill="#FFFFFF" points="135.284 154.702 141.938 154.702 141.938 139.993 135.284 139.993"></polygon>
                <polygon id="Fill-257" fill="#FFFFFF" points="145.653 154.702 152.307 154.702 152.307 139.993 145.653 139.993"></polygon>
                <polygon id="Fill-258" fill="#FFFFFF" points="156.023 154.702 162.677 154.702 162.677 139.993 156.023 139.993"></polygon>
                <polygon id="Fill-259" fill="#FFFFFF" points="166.392 154.702 173.046 154.702 173.046 139.993 166.392 139.993"></polygon>
                <polygon id="Fill-260" fill="#FFFFFF" points="135.284 174.544 141.938 174.544 141.938 159.836 135.284 159.836"></polygon>
                <polygon id="Fill-261" fill="#FFFFFF" points="145.653 174.544 152.307 174.544 152.307 159.836 145.653 159.836"></polygon>
                <polygon id="Fill-262" fill="#FFFFFF" points="156.023 174.544 162.677 174.544 162.677 159.836 156.023 159.836"></polygon>
                <polygon id="Fill-263" fill="#FFFFFF" points="166.392 174.544 173.046 174.544 173.046 159.836 166.392 159.836"></polygon>
                <polygon id="Fill-264" fill="#FFFFFF" points="135.284 194.161 141.938 194.161 141.938 179.453 135.284 179.453"></polygon>
                <polygon id="Fill-265" fill="#FFFFFF" points="145.653 194.161 152.307 194.161 152.307 179.453 145.653 179.453"></polygon>
                <polygon id="Fill-266" fill="#FFFFFF" points="156.023 194.161 162.677 194.161 162.677 179.453 156.023 179.453"></polygon>
                <polygon id="Fill-267" fill="#FFFFFF" points="166.392 194.161 173.046 194.161 173.046 179.453 166.392 179.453"></polygon>
                <polygon id="Fill-268" fill="#FFFFFF" points="135.284 214.235 141.938 214.235 141.938 199.527 135.284 199.527"></polygon>
                <polygon id="Fill-269" fill="#FFFFFF" points="145.653 214.235 152.307 214.235 152.307 199.527 145.653 199.527"></polygon>
                <polygon id="Fill-270" fill="#FFFFFF" points="156.023 214.235 162.677 214.235 162.677 199.527 156.023 199.527"></polygon>
                <polygon id="Fill-271" fill="#FFFFFF" points="166.392 214.235 173.046 214.235 173.046 199.527 166.392 199.527"></polygon>
            </g>
        </g>
    </g>
</svg>