<?xml version="1.0" encoding="utf-8"?>
<!-- Generator: Adobe Illustrator 22.0.0, SVG Export Plug-In . SVG Version: 6.00 Build 0)  -->
<svg version="1.1" id="Layer_1" xmlns="http://www.w3.org/2000/svg" xmlns:xlink="http://www.w3.org/1999/xlink" x="0px" y="0px"
	 viewBox="0 0 405 230" style="enable-background:new 0 0 405 230;" xml:space="preserve">
<style type="text/css">
	.st0{fill:#EDEDED;}
	.st1{fill:#9D9D9C;}
	.st2{fill:#DADADA;}
	.st3{fill:#FFFFFF;}
	.st4{fill:#FFD85C;}
</style>
<title>Art - City</title>
<desc>Created with Sketch.</desc>
<polygon id="Fill-1" class="st0" points="355.8,228.2 404,228.2 404,79.4 355.8,79.4 "/>
<polygon id="Fill-2" class="st1" points="117,45.6 77.8,78.6 77.8,209 117,209 "/>
<polygon id="Fill-3" class="st1" points="117,45.6 77.8,78.6 77.8,229 117,229 "/>
<polygon id="Fill-4" class="st2" points="84.8,96.3 88.3,96.3 88.3,87.2 84.8,87.2 "/>
<polygon id="Fill-5" class="st2" points="90.3,96.3 93.8,96.3 93.8,87.2 90.3,87.2 "/>
<polygon id="Fill-6" class="st2" points="95.8,96.3 99.3,96.3 99.3,87.2 95.8,87.2 "/>
<polygon id="Fill-7" class="st2" points="101.3,96.3 104.8,96.3 104.8,87.2 101.3,87.2 "/>
<polygon id="Fill-8" class="st2" points="106.8,96.3 110.3,96.3 110.3,87.2 106.8,87.2 "/>
<polygon id="Fill-9" class="st2" points="84.8,107.9 88.3,107.9 88.3,98.8 84.8,98.8 "/>
<polygon id="Fill-10" class="st2" points="90.3,107.9 93.8,107.9 93.8,98.8 90.3,98.8 "/>
<polygon id="Fill-11" class="st2" points="95.8,107.9 99.3,107.9 99.3,98.8 95.8,98.8 "/>
<polygon id="Fill-12" class="st2" points="101.3,107.9 104.8,107.9 104.8,98.8 101.3,98.8 "/>
<polygon id="Fill-13" class="st2" points="106.8,107.9 110.3,107.9 110.3,98.8 106.8,98.8 "/>
<polygon id="Fill-14" class="st2" points="84.8,119.6 88.3,119.6 88.3,110.5 84.8,110.5 "/>
<polygon id="Fill-15" class="st2" points="90.3,119.6 93.8,119.6 93.8,110.5 90.3,110.5 "/>
<polygon id="Fill-16" class="st2" points="95.8,119.6 99.3,119.6 99.3,110.5 95.8,110.5 "/>
<polygon id="Fill-17" class="st2" points="101.3,119.6 104.8,119.6 104.8,110.5 101.3,110.5 "/>
<polygon id="Fill-18" class="st2" points="106.8,119.6 110.3,119.6 110.3,110.5 106.8,110.5 "/>
<polygon id="Fill-19" class="st2" points="84.8,131.2 88.3,131.2 88.3,122.1 84.8,122.1 "/>
<polygon id="Fill-20" class="st2" points="90.3,131.2 93.8,131.2 93.8,122.1 90.3,122.1 "/>
<polygon id="Fill-21" class="st2" points="95.8,131.2 99.3,131.2 99.3,122.1 95.8,122.1 "/>
<polygon id="Fill-22" class="st2" points="101.3,131.2 104.8,131.2 104.8,122.1 101.3,122.1 "/>
<polygon id="Fill-23" class="st2" points="106.8,131.2 110.3,131.2 110.3,122.1 106.8,122.1 "/>
<polygon id="Fill-24" class="st2" points="84.8,142.8 88.3,142.8 88.3,133.7 84.8,133.7 "/>
<polygon id="Fill-25" class="st2" points="90.3,142.8 93.8,142.8 93.8,133.7 90.3,133.7 "/>
<polygon id="Fill-26" class="st2" points="95.8,142.8 99.3,142.8 99.3,133.7 95.8,133.7 "/>
<polygon id="Fill-27" class="st2" points="101.3,142.8 104.8,142.8 104.8,133.7 101.3,133.7 "/>
<polygon id="Fill-28" class="st2" points="106.8,142.8 110.3,142.8 110.3,133.7 106.8,133.7 "/>
<polygon id="Fill-29" class="st2" points="84.8,154.5 88.3,154.5 88.3,145.4 84.8,145.4 "/>
<polygon id="Fill-30" class="st2" points="90.3,154.5 93.8,154.5 93.8,145.4 90.3,145.4 "/>
<polygon id="Fill-31" class="st2" points="95.8,154.5 99.3,154.5 99.3,145.4 95.8,145.4 "/>
<polygon id="Fill-32" class="st2" points="101.3,154.5 104.8,154.5 104.8,145.4 101.3,145.4 "/>
<polygon id="Fill-33" class="st2" points="106.8,154.5 110.3,154.5 110.3,145.4 106.8,145.4 "/>
<polygon id="Fill-34" class="st2" points="84.8,166.1 88.3,166.1 88.3,157 84.8,157 "/>
<polygon id="Fill-35" class="st2" points="90.3,166.1 93.8,166.1 93.8,157 90.3,157 "/>
<polygon id="Fill-36" class="st2" points="95.8,166.1 99.3,166.1 99.3,157 95.8,157 "/>
<polygon id="Fill-37" class="st2" points="101.3,166.1 104.8,166.1 104.8,157 101.3,157 "/>
<polygon id="Fill-38" class="st2" points="106.8,166.1 110.3,166.1 110.3,157 106.8,157 "/>
<polygon id="Fill-39" class="st2" points="84.8,177.3 88.3,177.3 88.3,168.2 84.8,168.2 "/>
<polygon id="Fill-40" class="st2" points="90.3,177.3 93.8,177.3 93.8,168.2 90.3,168.2 "/>
<polygon id="Fill-41" class="st2" points="95.8,177.3 99.3,177.3 99.3,168.2 95.8,168.2 "/>
<polygon id="Fill-42" class="st2" points="101.3,177.3 104.8,177.3 104.8,168.2 101.3,168.2 "/>
<polygon id="Fill-43" class="st2" points="106.8,177.3 110.3,177.3 110.3,168.2 106.8,168.2 "/>
<polygon id="Fill-44" class="st2" points="84.8,188.9 88.3,188.9 88.3,179.8 84.8,179.8 "/>
<polygon id="Fill-45" class="st2" points="90.3,188.9 93.8,188.9 93.8,179.8 90.3,179.8 "/>
<polygon id="Fill-46" class="st2" points="95.8,188.9 99.3,188.9 99.3,179.8 95.8,179.8 "/>
<polygon id="Fill-47" class="st2" points="101.3,188.9 104.8,188.9 104.8,179.8 101.3,179.8 "/>
<polygon id="Fill-48" class="st2" points="106.8,188.9 110.3,188.9 110.3,179.8 106.8,179.8 "/>
<polygon id="Fill-49" class="st2" points="84.8,200.5 88.3,200.5 88.3,191.5 84.8,191.5 "/>
<polygon id="Fill-50" class="st2" points="90.3,200.5 93.8,200.5 93.8,191.5 90.3,191.5 "/>
<polygon id="Fill-51" class="st2" points="95.8,200.5 99.3,200.5 99.3,191.5 95.8,191.5 "/>
<polygon id="Fill-52" class="st2" points="101.3,200.5 104.8,200.5 104.8,191.5 101.3,191.5 "/>
<polygon id="Fill-53" class="st2" points="106.8,200.5 110.3,200.5 110.3,191.5 106.8,191.5 "/>
<polygon id="Fill-54" class="st0" points="78.4,45.6 39.2,78.6 39.2,209 78.4,209 "/>
<polygon id="Fill-55" class="st0" points="78.4,45.6 39.2,78.6 39.2,229 78.4,229 "/>
<polygon id="Fill-56" class="st1" points="46.2,96.3 49.7,96.3 49.7,87.2 46.2,87.2 "/>
<polygon id="Fill-57" class="st1" points="51.7,96.3 55.2,96.3 55.2,87.2 51.7,87.2 "/>
<polygon id="Fill-58" class="st1" points="57.2,96.3 60.7,96.3 60.7,87.2 57.2,87.2 "/>
<polygon id="Fill-59" class="st1" points="62.7,96.3 66.2,96.3 66.2,87.2 62.7,87.2 "/>
<polygon id="Fill-60" class="st1" points="68.1,96.3 71.7,96.3 71.7,87.2 68.1,87.2 "/>
<polygon id="Fill-61" class="st1" points="46.2,107.9 49.7,107.9 49.7,98.8 46.2,98.8 "/>
<polygon id="Fill-62" class="st1" points="51.7,107.9 55.2,107.9 55.2,98.8 51.7,98.8 "/>
<polygon id="Fill-63" class="st1" points="57.2,107.9 60.7,107.9 60.7,98.8 57.2,98.8 "/>
<polygon id="Fill-64" class="st1" points="62.7,107.9 66.2,107.9 66.2,98.8 62.7,98.8 "/>
<polygon id="Fill-65" class="st1" points="68.1,107.9 71.7,107.9 71.7,98.8 68.1,98.8 "/>
<polygon id="Fill-66" class="st1" points="46.2,119.6 49.7,119.6 49.7,110.5 46.2,110.5 "/>
<polygon id="Fill-67" class="st1" points="51.7,119.6 55.2,119.6 55.2,110.5 51.7,110.5 "/>
<polygon id="Fill-68" class="st1" points="57.2,119.6 60.7,119.6 60.7,110.5 57.2,110.5 "/>
<polygon id="Fill-69" class="st1" points="62.7,119.6 66.2,119.6 66.2,110.5 62.7,110.5 "/>
<polygon id="Fill-70" class="st1" points="68.1,119.6 71.7,119.6 71.7,110.5 68.1,110.5 "/>
<polygon id="Fill-71" class="st1" points="46.2,131.2 49.7,131.2 49.7,122.1 46.2,122.1 "/>
<polygon id="Fill-72" class="st1" points="51.7,131.2 55.2,131.2 55.2,122.1 51.7,122.1 "/>
<polygon id="Fill-73" class="st1" points="57.2,131.2 60.7,131.2 60.7,122.1 57.2,122.1 "/>
<polygon id="Fill-74" class="st1" points="62.7,131.2 66.2,131.2 66.2,122.1 62.7,122.1 "/>
<polygon id="Fill-75" class="st1" points="68.1,131.2 71.7,131.2 71.7,122.1 68.1,122.1 "/>
<polygon id="Fill-76" class="st1" points="46.2,142.8 49.7,142.8 49.7,133.7 46.2,133.7 "/>
<polygon id="Fill-77" class="st1" points="51.7,142.8 55.2,142.8 55.2,133.7 51.7,133.7 "/>
<polygon id="Fill-78" class="st1" points="57.2,142.8 60.7,142.8 60.7,133.7 57.2,133.7 "/>
<polygon id="Fill-79" class="st1" points="62.7,142.8 66.2,142.8 66.2,133.7 62.7,133.7 "/>
<polygon id="Fill-80" class="st1" points="68.1,142.8 71.7,142.8 71.7,133.7 68.1,133.7 "/>
<polygon id="Fill-81" class="st1" points="46.2,154.5 49.7,154.5 49.7,145.4 46.2,145.4 "/>
<polygon id="Fill-82" class="st1" points="51.7,154.5 55.2,154.5 55.2,145.4 51.7,145.4 "/>
<polygon id="Fill-83" class="st1" points="57.2,154.5 60.7,154.5 60.7,145.4 57.2,145.4 "/>
<polygon id="Fill-84" class="st1" points="62.7,154.5 66.2,154.5 66.2,145.4 62.7,145.4 "/>
<polygon id="Fill-85" class="st1" points="68.1,154.5 71.7,154.5 71.7,145.4 68.1,145.4 "/>
<polygon id="Fill-86" class="st1" points="46.2,166.1 49.7,166.1 49.7,157 46.2,157 "/>
<polygon id="Fill-87" class="st1" points="51.7,166.1 55.2,166.1 55.2,157 51.7,157 "/>
<polygon id="Fill-88" class="st1" points="57.2,166.1 60.7,166.1 60.7,157 57.2,157 "/>
<polygon id="Fill-89" class="st1" points="62.7,166.1 66.2,166.1 66.2,157 62.7,157 "/>
<polygon id="Fill-90" class="st1" points="68.1,166.1 71.7,166.1 71.7,157 68.1,157 "/>
<polygon id="Fill-91" class="st1" points="46.2,177.3 49.7,177.3 49.7,168.2 46.2,168.2 "/>
<polygon id="Fill-92" class="st1" points="51.7,177.3 55.2,177.3 55.2,168.2 51.7,168.2 "/>
<polygon id="Fill-93" class="st1" points="57.2,177.3 60.7,177.3 60.7,168.2 57.2,168.2 "/>
<polygon id="Fill-94" class="st1" points="62.7,177.3 66.2,177.3 66.2,168.2 62.7,168.2 "/>
<polygon id="Fill-95" class="st1" points="68.1,177.3 71.7,177.3 71.7,168.2 68.1,168.2 "/>
<polygon id="Fill-96" class="st1" points="46.2,188.9 49.7,188.9 49.7,179.8 46.2,179.8 "/>
<polygon id="Fill-97" class="st1" points="51.7,188.9 55.2,188.9 55.2,179.8 51.7,179.8 "/>
<polygon id="Fill-98" class="st1" points="57.2,188.9 60.7,188.9 60.7,179.8 57.2,179.8 "/>
<polygon id="Fill-99" class="st1" points="62.7,188.9 66.2,188.9 66.2,179.8 62.7,179.8 "/>
<polygon id="Fill-100" class="st1" points="68.1,188.9 71.7,188.9 71.7,179.8 68.1,179.8 "/>
<polygon id="Fill-101" class="st1" points="46.2,200.5 49.7,200.5 49.7,191.5 46.2,191.5 "/>
<polygon id="Fill-102" class="st1" points="51.7,200.5 55.2,200.5 55.2,191.5 51.7,191.5 "/>
<polygon id="Fill-103" class="st1" points="57.2,200.5 60.7,200.5 60.7,191.5 57.2,191.5 "/>
<polygon id="Fill-104" class="st1" points="62.7,200.5 66.2,200.5 66.2,191.5 62.7,191.5 "/>
<polygon id="Fill-105" class="st1" points="68.1,200.5 71.7,200.5 71.7,191.5 68.1,191.5 "/>
<polygon id="Fill-106" class="st2" points="0,78.6 0,209 39.2,209 39.2,45.6 "/>
<polygon id="Fill-107" class="st2" points="0,78.6 0,230 39.2,230 39.2,45.6 "/>
<polygon id="Fill-108" class="st3" points="7,96.3 10.6,96.3 10.6,87.2 7,87.2 "/>
<polygon id="Fill-109" class="st3" points="12.5,96.3 16.1,96.3 16.1,87.2 12.5,87.2 "/>
<polygon id="Fill-110" class="st3" points="18,96.3 21.6,96.3 21.6,87.2 18,87.2 "/>
<polygon id="Fill-111" class="st3" points="23.5,96.3 27.1,96.3 27.1,87.2 23.5,87.2 "/>
<polygon id="Fill-112" class="st3" points="29,96.3 32.5,96.3 32.5,87.2 29,87.2 "/>
<polygon id="Fill-113" class="st3" points="7,107.9 10.6,107.9 10.6,98.8 7,98.8 "/>
<polygon id="Fill-114" class="st3" points="12.5,107.9 16.1,107.9 16.1,98.8 12.5,98.8 "/>
<polygon id="Fill-115" class="st3" points="18,107.9 21.6,107.9 21.6,98.8 18,98.8 "/>
<polygon id="Fill-116" class="st3" points="23.5,107.9 27.1,107.9 27.1,98.8 23.5,98.8 "/>
<polygon id="Fill-117" class="st3" points="29,107.9 32.5,107.9 32.5,98.8 29,98.8 "/>
<polygon id="Fill-118" class="st3" points="7,119.6 10.6,119.6 10.6,110.5 7,110.5 "/>
<polygon id="Fill-119" class="st3" points="12.5,119.6 16.1,119.6 16.1,110.5 12.5,110.5 "/>
<polygon id="Fill-120" class="st3" points="18,119.6 21.6,119.6 21.6,110.5 18,110.5 "/>
<polygon id="Fill-121" class="st3" points="23.5,119.6 27.1,119.6 27.1,110.5 23.5,110.5 "/>
<polygon id="Fill-122" class="st3" points="29,119.6 32.5,119.6 32.5,110.5 29,110.5 "/>
<polygon id="Fill-123" class="st3" points="7,131.2 10.6,131.2 10.6,122.1 7,122.1 "/>
<polygon id="Fill-124" class="st3" points="12.5,131.2 16.1,131.2 16.1,122.1 12.5,122.1 "/>
<polygon id="Fill-125" class="st3" points="18,131.2 21.6,131.2 21.6,122.1 18,122.1 "/>
<polygon id="Fill-126" class="st3" points="23.5,131.2 27.1,131.2 27.1,122.1 23.5,122.1 "/>
<polygon id="Fill-127" class="st3" points="29,131.2 32.5,131.2 32.5,122.1 29,122.1 "/>
<polygon id="Fill-128" class="st3" points="7,142.8 10.6,142.8 10.6,133.7 7,133.7 "/>
<polygon id="Fill-129" class="st3" points="12.5,142.8 16.1,142.8 16.1,133.7 12.5,133.7 "/>
<polygon id="Fill-130" class="st3" points="18,142.8 21.6,142.8 21.6,133.7 18,133.7 "/>
<polygon id="Fill-131" class="st3" points="23.5,142.8 27.1,142.8 27.1,133.7 23.5,133.7 "/>
<polygon id="Fill-132" class="st3" points="29,142.8 32.5,142.8 32.5,133.7 29,133.7 "/>
<polygon id="Fill-133" class="st3" points="7,154.5 10.6,154.5 10.6,145.4 7,145.4 "/>
<polygon id="Fill-134" class="st3" points="12.5,154.5 16.1,154.5 16.1,145.4 12.5,145.4 "/>
<polygon id="Fill-135" class="st3" points="18,154.5 21.6,154.5 21.6,145.4 18,145.4 "/>
<polygon id="Fill-136" class="st3" points="23.5,154.5 27.1,154.5 27.1,145.4 23.5,145.4 "/>
<polygon id="Fill-137" class="st3" points="29,154.5 32.5,154.5 32.5,145.4 29,145.4 "/>
<polygon id="Fill-138" class="st3" points="7,166.1 10.6,166.1 10.6,157 7,157 "/>
<polygon id="Fill-139" class="st3" points="12.5,166.1 16.1,166.1 16.1,157 12.5,157 "/>
<polygon id="Fill-140" class="st3" points="18,166.1 21.6,166.1 21.6,157 18,157 "/>
<polygon id="Fill-141" class="st3" points="23.5,166.1 27.1,166.1 27.1,157 23.5,157 "/>
<polygon id="Fill-142" class="st3" points="29,166.1 32.5,166.1 32.5,157 29,157 "/>
<polygon id="Fill-143" class="st3" points="7,177.3 10.6,177.3 10.6,168.2 7,168.2 "/>
<polygon id="Fill-144" class="st3" points="12.5,177.3 16.1,177.3 16.1,168.2 12.5,168.2 "/>
<polygon id="Fill-145" class="st3" points="18,177.3 21.6,177.3 21.6,168.2 18,168.2 "/>
<polygon id="Fill-146" class="st3" points="23.5,177.3 27.1,177.3 27.1,168.2 23.5,168.2 "/>
<polygon id="Fill-147" class="st3" points="29,177.3 32.5,177.3 32.5,168.2 29,168.2 "/>
<polygon id="Fill-148" class="st3" points="7,188.9 10.6,188.9 10.6,179.8 7,179.8 "/>
<polygon id="Fill-149" class="st3" points="12.5,188.9 16.1,188.9 16.1,179.8 12.5,179.8 "/>
<polygon id="Fill-150" class="st3" points="18,188.9 21.6,188.9 21.6,179.8 18,179.8 "/>
<polygon id="Fill-151" class="st3" points="23.5,188.9 27.1,188.9 27.1,179.8 23.5,179.8 "/>
<polygon id="Fill-152" class="st3" points="29,188.9 32.5,188.9 32.5,179.8 29,179.8 "/>
<polygon id="Fill-153" class="st3" points="7,200.5 10.6,200.5 10.6,191.5 7,191.5 "/>
<polygon id="Fill-154" class="st3" points="12.5,200.5 16.1,200.5 16.1,191.5 12.5,191.5 "/>
<polygon id="Fill-155" class="st3" points="18,200.5 21.6,200.5 21.6,191.5 18,191.5 "/>
<polygon id="Fill-156" class="st3" points="23.5,200.5 27.1,200.5 27.1,191.5 23.5,191.5 "/>
<polygon id="Fill-157" class="st3" points="29,200.5 32.5,200.5 32.5,191.5 29,191.5 "/>
<polygon id="Fill-158" class="st2" points="381.5,62.1 381.5,45.7 378.5,48.6 378.5,62.1 365,62.1 365,80.7 395,80.7 395,62.1 "/>
<polygon id="Fill-159" class="st2" points="384.3,79.4 403.9,79.4 403.9,86.9 384.3,86.9 384.3,92.6 403.9,92.6 403.9,100.1 
	384.3,100.1 384.3,105.8 403.9,105.8 403.9,113.3 384.3,113.3 384.3,119 403.9,119 403.9,126.5 384.3,126.5 384.3,132.2 
	403.9,132.2 403.9,139.8 384.3,139.8 384.3,145.5 403.9,145.5 403.9,147.3 403.9,149.5 403.9,152.7 384.3,152.7 384.3,158.4 
	403.9,158.4 403.9,165.9 384.3,165.9 384.3,171.6 403.9,171.6 403.9,179.1 384.3,179.1 384.3,184.8 403.9,184.8 403.9,192.3 
	384.3,192.3 384.3,198 403.9,198 403.9,205.6 384.3,205.6 384.3,211.3 403.9,211.3 403.9,218.8 384.3,218.8 384.3,224.5 
	403.9,224.5 403.9,228.5 356.1,228.5 356.1,224.5 375.6,224.5 375.6,218.8 356.1,218.8 356.1,211.3 375.6,211.3 375.6,205.6 
	356.1,205.6 356.1,198 375.6,198 375.6,192.3 356.1,192.3 356.1,184.8 375.6,184.8 375.6,179.1 356.1,179.1 356.1,171.6 
	375.6,171.6 375.6,165.9 356.1,165.9 356.1,158.4 375.6,158.4 375.6,152.7 356.1,152.7 356.1,149.5 356.1,147.3 356.1,145.5 
	375.6,145.5 375.6,139.8 356.1,139.8 356.1,132.2 375.6,132.2 375.6,126.5 356.1,126.5 356.1,119 375.6,119 375.6,113.3 
	356.1,113.3 356.1,105.8 375.6,105.8 375.6,100.1 356.1,100.1 356.1,92.6 375.6,92.6 375.6,86.9 356.1,86.9 356.1,79.4 375.6,79.4 
	"/>
<polygon id="Fill-160" class="st1" points="195.9,228.2 245.6,228.2 245.6,0 195.9,0 "/>
<polygon id="Fill-161" class="st2" points="201,8.9 240.6,8.9 240.6,6.4 201,6.4 "/>
<polygon id="Fill-162" class="st2" points="201,17.6 240.6,17.6 240.6,15.1 201,15.1 "/>
<polygon id="Fill-163" class="st2" points="201,26.3 240.6,26.3 240.6,23.9 201,23.9 "/>
<polygon id="Fill-164" class="st2" points="201,35.1 240.6,35.1 240.6,32.6 201,32.6 "/>
<polygon id="Fill-165" class="st2" points="201,43.8 240.6,43.8 240.6,41.3 201,41.3 "/>
<polygon id="Fill-166" class="st2" points="201,52.5 240.6,52.5 240.6,50 201,50 "/>
<polygon id="Fill-167" class="st2" points="201,61.3 240.6,61.3 240.6,58.8 201,58.8 "/>
<polygon id="Fill-168" class="st2" points="201,70 240.6,70 240.6,67.5 201,67.5 "/>
<polygon id="Fill-169" class="st2" points="201,78.7 240.6,78.7 240.6,76.2 201,76.2 "/>
<polygon id="Fill-170" class="st2" points="201,87.4 240.6,87.4 240.6,85 201,85 "/>
<polygon id="Fill-171" class="st2" points="201,96.2 240.6,96.2 240.6,93.7 201,93.7 "/>
<polygon id="Fill-172" class="st2" points="201,104.9 240.6,104.9 240.6,102.4 201,102.4 "/>
<polygon id="Fill-173" class="st2" points="201,113.6 240.6,113.6 240.6,111.2 201,111.2 "/>
<polygon id="Fill-174" class="st2" points="201,122.4 240.6,122.4 240.6,119.9 201,119.9 "/>
<polygon id="Fill-175" class="st2" points="201,131.1 240.6,131.1 240.6,128.6 201,128.6 "/>
<polygon id="Fill-176" class="st2" points="201,139.8 240.6,139.8 240.6,137.3 201,137.3 "/>
<polygon id="Fill-177" class="st2" points="201,148.6 240.6,148.6 240.6,146.1 201,146.1 "/>
<polygon id="Fill-178" class="st2" points="201,157.3 240.6,157.3 240.6,154.8 201,154.8 "/>
<polygon id="Fill-179" class="st2" points="201,166 240.6,166 240.6,163.5 201,163.5 "/>
<polygon id="Fill-180" class="st2" points="201,174.7 240.6,174.7 240.6,172.3 201,172.3 "/>
<polygon id="Fill-181" class="st2" points="201,183.5 240.6,183.5 240.6,181 201,181 "/>
<polygon id="Fill-182" class="st2" points="201,192.2 240.6,192.2 240.6,189.7 201,189.7 "/>
<polygon id="Fill-183" class="st2" points="201,200.9 240.6,200.9 240.6,198.5 201,198.5 "/>
<polygon id="Fill-184" class="st2" points="201,209.7 240.6,209.7 240.6,207.2 201,207.2 "/>
<polygon id="Fill-185" class="st0" points="294.9,228.2 344.6,228.2 344.6,51.3 294.9,51.3 "/>
<polygon id="Fill-186" class="st1" points="299.9,61.3 339.5,61.3 339.5,58.8 299.9,58.8 "/>
<polygon id="Fill-187" class="st1" points="299.9,70 339.5,70 339.5,67.5 299.9,67.5 "/>
<polygon id="Fill-188" class="st1" points="299.9,78.7 339.5,78.7 339.5,76.2 299.9,76.2 "/>
<polygon id="Fill-189" class="st1" points="299.9,87.4 339.5,87.4 339.5,85 299.9,85 "/>
<polygon id="Fill-190" class="st1" points="299.9,96.2 339.5,96.2 339.5,93.7 299.9,93.7 "/>
<polygon id="Fill-191" class="st1" points="299.9,104.9 339.5,104.9 339.5,102.4 299.9,102.4 "/>
<polygon id="Fill-192" class="st1" points="299.9,113.6 339.5,113.6 339.5,111.2 299.9,111.2 "/>
<polygon id="Fill-193" class="st1" points="299.9,122.4 339.5,122.4 339.5,119.9 299.9,119.9 "/>
<polygon id="Fill-194" class="st1" points="299.9,131.1 339.5,131.1 339.5,128.6 299.9,128.6 "/>
<polygon id="Fill-195" class="st1" points="299.9,139.8 339.5,139.8 339.5,137.3 299.9,137.3 "/>
<polygon id="Fill-196" class="st1" points="299.9,148.6 339.5,148.6 339.5,146.1 299.9,146.1 "/>
<polygon id="Fill-197" class="st1" points="299.9,157.3 339.5,157.3 339.5,154.8 299.9,154.8 "/>
<polygon id="Fill-198" class="st1" points="299.9,166 339.5,166 339.5,163.5 299.9,163.5 "/>
<polygon id="Fill-199" class="st1" points="299.9,174.7 339.5,174.7 339.5,172.3 299.9,172.3 "/>
<polygon id="Fill-200" class="st1" points="299.9,183.5 339.5,183.5 339.5,181 299.9,181 "/>
<polygon id="Fill-201" class="st1" points="299.9,192.2 339.5,192.2 339.5,189.7 299.9,189.7 "/>
<polygon id="Fill-202" class="st1" points="299.9,200.9 339.5,200.9 339.5,198.5 299.9,198.5 "/>
<polygon id="Fill-203" class="st1" points="299.9,209.7 339.5,209.7 339.5,207.2 299.9,207.2 "/>
<polygon id="Fill-204" class="st2" points="277.9,73.2 277.9,63.9 264.2,51.8 250.4,63.9 250.4,73.2 239.3,73.2 239.3,228.2 
	289,228.2 289,73.2 "/>
<polygon id="Fill-205" class="st3" points="257,75.9 262,75.9 262,64.2 257,64.2 "/>
<polygon id="Fill-206" class="st3" points="266.4,75.9 271.3,75.9 271.3,64.2 266.4,64.2 "/>
<polygon id="Fill-207" class="st4" points="247.8,94.7 252.7,94.7 252.7,83.1 247.8,83.1 "/>
<polygon id="Fill-208" class="st4" points="257.1,94.7 262,94.7 262,83.1 257.1,83.1 "/>
<polygon id="Fill-209" class="st4" points="266.3,94.7 271.2,94.7 271.2,83.1 266.3,83.1 "/>
<polygon id="Fill-210" class="st4" points="275.6,94.7 280.6,94.7 280.6,83.1 275.6,83.1 "/>
<polygon id="Fill-211" class="st4" points="247.8,110.7 252.7,110.7 252.7,99.1 247.8,99.1 "/>
<polygon id="Fill-212" class="st4" points="257.1,110.7 262,110.7 262,99.1 257.1,99.1 "/>
<polygon id="Fill-213" class="st4" points="266.3,110.7 271.2,110.7 271.2,99.1 266.3,99.1 "/>
<polygon id="Fill-214" class="st4" points="275.6,110.7 280.6,110.7 280.6,99.1 275.6,99.1 "/>
<polygon id="Fill-215" class="st4" points="247.8,126.7 252.7,126.7 252.7,115.1 247.8,115.1 "/>
<polygon id="Fill-216" class="st4" points="257.1,126.7 262,126.7 262,115.1 257.1,115.1 "/>
<polygon id="Fill-217" class="st4" points="266.3,126.7 271.2,126.7 271.2,115.1 266.3,115.1 "/>
<polygon id="Fill-218" class="st4" points="275.6,126.7 280.6,126.7 280.6,115.1 275.6,115.1 "/>
<polygon id="Fill-219" class="st4" points="247.8,142.8 252.7,142.8 252.7,131.1 247.8,131.1 "/>
<polygon id="Fill-220" class="st4" points="257.1,142.8 262,142.8 262,131.1 257.1,131.1 "/>
<polygon id="Fill-221" class="st4" points="266.3,142.8 271.2,142.8 271.2,131.1 266.3,131.1 "/>
<polygon id="Fill-222" class="st4" points="275.6,142.8 280.6,142.8 280.6,131.1 275.6,131.1 "/>
<polygon id="Fill-223" class="st4" points="247.8,158.8 252.7,158.8 252.7,147.1 247.8,147.1 "/>
<polygon id="Fill-224" class="st4" points="257.1,158.8 262,158.8 262,147.1 257.1,147.1 "/>
<polygon id="Fill-225" class="st4" points="266.3,158.8 271.2,158.8 271.2,147.1 266.3,147.1 "/>
<polygon id="Fill-226" class="st4" points="275.6,158.8 280.6,158.8 280.6,147.1 275.6,147.1 "/>
<polygon id="Fill-227" class="st4" points="247.8,174.8 252.7,174.8 252.7,163.2 247.8,163.2 "/>
<polygon id="Fill-228" class="st4" points="257.1,174.8 262,174.8 262,163.2 257.1,163.2 "/>
<polygon id="Fill-229" class="st4" points="266.3,174.8 271.2,174.8 271.2,163.2 266.3,163.2 "/>
<polygon id="Fill-230" class="st4" points="275.6,174.8 280.6,174.8 280.6,163.2 275.6,163.2 "/>
<polygon id="Fill-231" class="st4" points="247.8,190.8 252.7,190.8 252.7,179.2 247.8,179.2 "/>
<polygon id="Fill-232" class="st4" points="257.1,190.8 262,190.8 262,179.2 257.1,179.2 "/>
<polygon id="Fill-233" class="st4" points="266.3,190.8 271.2,190.8 271.2,179.2 266.3,179.2 "/>
<polygon id="Fill-234" class="st4" points="275.6,190.8 280.6,190.8 280.6,179.2 275.6,179.2 "/>
<polygon id="Fill-235" class="st4" points="247.8,206.8 252.7,206.8 252.7,195.2 247.8,195.2 "/>
<polygon id="Fill-236" class="st4" points="257.1,206.8 262,206.8 262,195.2 257.1,195.2 "/>
<polygon id="Fill-237" class="st4" points="266.3,206.8 271.2,206.8 271.2,195.2 266.3,195.2 "/>
<polygon id="Fill-238" class="st4" points="275.6,206.8 280.6,206.8 280.6,195.2 275.6,195.2 "/>
<polygon id="Fill-239" class="st0" points="175.5,50.7 175.5,38.7 170.6,38.7 170.6,27.3 137.7,27.3 137.7,38.7 132.8,38.7 
	132.8,50.7 127.8,50.7 127.8,228.9 181.7,228.9 181.7,50.7 "/>
<polygon id="Fill-240" class="st3" points="135.3,74.2 141.9,74.2 141.9,59.5 135.3,59.5 "/>
<polygon id="Fill-241" class="st3" points="145.7,74.2 152.3,74.2 152.3,59.5 145.7,59.5 "/>
<polygon id="Fill-242" class="st3" points="156,74.2 162.7,74.2 162.7,59.5 156,59.5 "/>
<polygon id="Fill-243" class="st3" points="166.4,74.2 173,74.2 173,59.5 166.4,59.5 "/>
<polygon id="Fill-244" class="st3" points="135.3,94.2 141.9,94.2 141.9,79.5 135.3,79.5 "/>
<polygon id="Fill-245" class="st3" points="145.7,94.2 152.3,94.2 152.3,79.5 145.7,79.5 "/>
<polygon id="Fill-246" class="st3" points="156,94.2 162.7,94.2 162.7,79.5 156,79.5 "/>
<polygon id="Fill-247" class="st3" points="166.4,94.2 173,94.2 173,79.5 166.4,79.5 "/>
<polygon id="Fill-248" class="st3" points="135.3,114.3 141.9,114.3 141.9,99.6 135.3,99.6 "/>
<polygon id="Fill-249" class="st3" points="145.7,114.3 152.3,114.3 152.3,99.6 145.7,99.6 "/>
<polygon id="Fill-250" class="st3" points="156,114.3 162.7,114.3 162.7,99.6 156,99.6 "/>
<polygon id="Fill-251" class="st3" points="166.4,114.3 173,114.3 173,99.6 166.4,99.6 "/>
<polygon id="Fill-252" class="st3" points="135.3,134.4 141.9,134.4 141.9,119.7 135.3,119.7 "/>
<polygon id="Fill-253" class="st3" points="145.7,134.4 152.3,134.4 152.3,119.7 145.7,119.7 "/>
<polygon id="Fill-254" class="st3" points="156,134.4 162.7,134.4 162.7,119.7 156,119.7 "/>
<polygon id="Fill-255" class="st3" points="166.4,134.4 173,134.4 173,119.7 166.4,119.7 "/>
<polygon id="Fill-256" class="st3" points="135.3,154.7 141.9,154.7 141.9,140 135.3,140 "/>
<polygon id="Fill-257" class="st3" points="145.7,154.7 152.3,154.7 152.3,140 145.7,140 "/>
<polygon id="Fill-258" class="st3" points="156,154.7 162.7,154.7 162.7,140 156,140 "/>
<polygon id="Fill-259" class="st3" points="166.4,154.7 173,154.7 173,140 166.4,140 "/>
<polygon id="Fill-260" class="st3" points="135.3,174.5 141.9,174.5 141.9,159.8 135.3,159.8 "/>
<polygon id="Fill-261" class="st3" points="145.7,174.5 152.3,174.5 152.3,159.8 145.7,159.8 "/>
<polygon id="Fill-262" class="st3" points="156,174.5 162.7,174.5 162.7,159.8 156,159.8 "/>
<polygon id="Fill-263" class="st3" points="166.4,174.5 173,174.5 173,159.8 166.4,159.8 "/>
<polygon id="Fill-264" class="st3" points="135.3,194.2 141.9,194.2 141.9,179.5 135.3,179.5 "/>
<polygon id="Fill-265" class="st3" points="145.7,194.2 152.3,194.2 152.3,179.5 145.7,179.5 "/>
<polygon id="Fill-266" class="st3" points="156,194.2 162.7,194.2 162.7,179.5 156,179.5 "/>
<polygon id="Fill-267" class="st3" points="166.4,194.2 173,194.2 173,179.5 166.4,179.5 "/>
<polygon id="Fill-268" class="st3" points="135.3,214.2 141.9,214.2 141.9,199.5 135.3,199.5 "/>
<polygon id="Fill-269" class="st3" points="145.7,214.2 152.3,214.2 152.3,199.5 145.7,199.5 "/>
<polygon id="Fill-270" class="st3" points="156,214.2 162.7,214.2 162.7,199.5 156,199.5 "/>
<polygon id="Fill-271" class="st3" points="166.4,214.2 173,214.2 173,199.5 166.4,199.5 "/>
</svg>
