<?xml version="1.0" encoding="utf-8"?>
<!-- Generator: Adobe Illustrator 22.0.0, SVG Export Plug-In . SVG Version: 6.00 Build 0)  -->
<svg version="1.1" id="Front_mtn" xmlns="http://www.w3.org/2000/svg" xmlns:xlink="http://www.w3.org/1999/xlink" x="0px" y="0px"
	 viewBox="0 0 973.4 664.8" style="enable-background:new 0 0 973.4 664.8;" xml:space="preserve">
<style type="text/css">
	.st0{fill:#566330;}
	.st1{fill:#646F3B;}
</style>
<g>
	<g>
		<g>
			<polygon class="st0" points="233.4,98.6 231.4,98.9 229.3,98.6 225.7,151.3 231.4,151.3 237,151.3 			"/>
		</g>
		<g>
			<polygon class="st0" points="258.1,110.8 261.1,110.8 254.3,95.3 258.1,95.3 252.6,83 256,83 248.4,71.2 253,71.2 245.4,55.9 
				248.4,55.9 242.4,42.5 246.7,42.5 239.9,30.9 244.5,30.9 236.5,19.5 240.3,19.5 231.4,0 222.4,19.5 226.3,19.5 218.2,30.9 
				222.9,30.9 216.1,42.5 220.3,42.5 214.4,55.9 217.3,55.9 209.7,71.2 214.4,71.2 206.7,83 210.1,83 204.6,95.3 208.4,95.3 
				201.6,110.8 204.6,110.8 197.4,124.9 231.4,124.9 265.4,124.9 			"/>
		</g>
		<path class="st1" d="M265.4,124.9l-7.2-14.1h3l-6.8-15.5h3.8L252.6,83h3.4l-7.6-11.9h4.7l-7.6-15.2h3l-5.9-13.4h4.2L240,30.9h4.7
			l-8.1-11.4h3.8l-9-19.5c6.4,59.3,0,98.9-10,110.5s-24,14.4-24,14.4h34H265.4z"/>
		<g>
			<polygon class="st0" points="189.9,97.6 187.8,97.9 185.8,97.6 182.2,150.3 187.8,150.3 193.5,150.3 			"/>
		</g>
		<polygon class="st0" points="224.7,141 207.1,120.8 219,120.8 194.6,92.1 209.8,92.1 193.6,73.5 204.1,73.5 190.6,57.9 198,57.9 
			186,44 174,57.9 181.5,57.9 167.9,73.5 178.5,73.5 162.2,92.1 177.4,92.1 153,120.8 164.9,120.8 147.3,141 		"/>
		<path class="st1" d="M224.7,141l-17.6-20.2H219l-24.3-28.7h15.1l-16.2-18.6h10.6L190.7,58h7.4l-11.5-14.8l-1.3,1.7
			c0,0,12.9,97-37.9,96.1H224.7z"/>
		<g>
			<polygon class="st0" points="278.9,100 276.9,100.3 274.8,100 271.2,152.6 276.9,152.6 282.5,152.6 			"/>
		</g>
		<polygon class="st0" points="316.6,139.9 299,119.7 310.8,119.7 286.5,91 301.6,91 285.4,72.3 296,72.3 282.4,56.8 289.9,56.8 
			277.9,42.9 265.9,56.8 273.3,56.8 259.8,72.3 270.3,72.3 254.1,91 269.2,91 244.9,119.7 256.7,119.7 239.2,139.9 		"/>
		<path class="st1" d="M316.6,139.9L299,119.7h11.8L286.5,91h15.1l-16.2-18.6H296l-13.5-15.5h7.4L278.4,42l-0.5,0.9
			c0,0,12.1,97.9-38.6,96.9L316.6,139.9z"/>
		<g>
			<polygon class="st0" points="137.7,104.8 135.6,105.1 133.6,104.8 130,157.5 135.6,157.5 141.3,157.5 			"/>
		</g>
		<g>
			<polygon class="st0" points="162.4,117 165.4,117 158.6,101.5 162.4,101.5 156.9,89.2 160.3,89.2 152.6,77.3 157.3,77.3 
				149.6,62.1 152.6,62.1 146.7,48.7 150.9,48.7 144.1,37.1 148.8,37.1 140.7,25.7 144.5,25.7 135.6,6.2 126.7,25.7 130.5,25.7 
				122.4,37.1 127.1,37.1 120.3,48.7 124.6,48.7 118.6,62.1 121.6,62.1 113.9,77.3 118.6,77.3 111,89.2 114.4,89.2 108.8,101.5 
				112.7,101.5 105.9,117 108.8,117 101.6,131.1 135.6,131.1 169.6,131.1 			"/>
		</g>
		<path class="st1" d="M169.6,131.1l-7.2-14.1h3l-6.8-15.5h3.8l-5.5-12.3h3.4l-7.6-11.9h4.7l-7.6-15.2h3l-5.9-13.4h4.2l-6.8-11.6
			h4.7l-8.1-11.4h3.8l-8.9-19.5c6.4,59.3,0,98.9-10,110.5s-24,14.4-24,14.4h34H169.6z"/>
		<g>
			<polygon class="st0" points="349.5,111.8 347.4,111.8 345.4,111.2 334.3,162.8 339.9,163.6 345.5,164.4 			"/>
		</g>
		<polygon class="st0" points="381.1,156.7 366.6,134.2 378.3,135.9 358.3,103.9 373.3,106.1 359.9,85.3 370.4,86.9 359.2,69.6 
			366.6,70.6 356.7,55.1 342.8,67.2 350.2,68.2 334.6,81.7 345,83.2 326.3,99.3 341.3,101.5 313,126.4 324.7,128.1 304.4,145.6 		
			"/>
		<path class="st1" d="M381.1,156.7l-14.5-22.5l11.7,1.7l-20-31.9l15,2.2l-13.4-20.8l10.4,1.5l-11.1-17.3l7.4,1.1l-9.3-16.3
			l-0.6,0.8c0,0-2.1,98.6-52.2,90.4L381.1,156.7z"/>
		<g>
			<polygon class="st0" points="57.8,111.7 55.7,112.2 53.7,112.2 55.8,164.9 61.4,164.3 67,163.6 			"/>
		</g>
		<polygon class="st0" points="97.1,151.1 77.4,132.9 89.2,131.7 61.9,105.7 76.9,104.1 58.8,87.3 69.3,86.2 54.1,72.2 61.5,71.4 
			48.1,58.9 37.7,74 45.1,73.2 33.3,90.1 43.8,88.9 29.7,109.2 44.7,107.6 23.6,138.8 35.4,137.5 20.1,159.5 		"/>
		<path class="st1" d="M97.1,151.1l-19.7-18.2l11.8-1.3l-27.3-25.9l15.1-1.6L58.8,87.3l10.5-1.1l-15.1-14l7.4-0.8L48.5,58l-1.1,1.8
			c0,0,23.3,95.1-27.3,99.6L97.1,151.1z"/>
	</g>
	<path class="st0" d="M794.2,301.4c-143.5-75.4-410-143.7-518.9-151c-59.9-4-119.1-3.8-178.8,5.5L0.1,171.5v305.3c0,0-0.2,187,0,187
		l90.6-0.8c0,0,377.4,28.3,694.7-144.2c0,0,67-38.7,150.7-78.7l36.5-17.3C982.5,415.2,901.8,354.1,794.2,301.4z"/>
</g>
</svg>
