<?xml version="1.0" encoding="utf-8"?>
<!-- Generator: Adobe Illustrator 22.0.0, SVG Export Plug-In . SVG Version: 6.00 Build 0)  -->
<svg version="1.1" id="Front_mtn" xmlns="http://www.w3.org/2000/svg" xmlns:xlink="http://www.w3.org/1999/xlink" x="0px" y="0px"
	 viewBox="0 0 780.7 526.5" style="enable-background:new 0 0 780.7 526.5;" xml:space="preserve">
<style type="text/css">
	.st0{fill:#AEAF71;}
	.st1{fill:#A0A366;}
	.st2{fill:#81AE40;}
</style>
<g>
	<g>
		<path class="st0" d="M538.2,152.2c0,0-34.4-11.6-42.5-36.5c-8-24.9,0.6-60.3,32.3-72.4c31.7-12.2,72,8.8,74.1,43.1
			c2.1,34.3-19.4,57.5-47.6,65.8H538.2z"/>
	</g>
	<path class="st1" d="M602.1,86.4c-1-15.8-10-28.7-22.6-36.9l0,0c16,25.2,2.6,72.5-30.2,80.9c-32.3,8.2-49.7-6.9-50.3-7.4
		c11.5,19.9,39.2,29.2,39.2,29.2h16.3C582.7,143.9,604.2,120.7,602.1,86.4z"/>
</g>
<g>
	<path class="st0" d="M546.6,241.1c0,0,2.5-85.9,1.7-88.9c-0.7-3-9.4-16.5-9.4-16.5s11.2,12.3,12.2,7.2c1-5.1,3.2-43.6,3.2-43.6
		s0.7,38.9,3.5,38.5c2.8-0.4,14.3-15.7,14.3-15.7s-13.3,20.3-13.3,27.9c0,7.6,1.1,91,1.1,91L546.6,241.1L546.6,241.1z"/>
</g>
<path class="st0" d="M780.7,225c0,0-444.2,3-715.7,7.4C39.9,255,19.2,279.1,8,306.1c-23,55.2,4.4,108.4,72.2,145.8
	c61.7,34.1,139.3,52.7,217.2,66.3c75.1,13.1,148.6,6.5,226.6,8.1c14,0.3,207.7,0,256.7,0C780.7,526.2,780.7,225,780.7,225z"/>
<g>
	<path class="st0" d="M767.2,118.9c0.9-2.6,1.3-5.4,1.3-8.3c0-14.6-11.9-26.5-26.5-26.5c-6.5,0-12.4,2.3-17,6.2
		c-4.6-3.8-10.5-6.2-17-6.2c-14.6,0-26.5,11.9-26.5,26.5c0,2.9,0.5,5.7,1.3,8.3c-6.8,4.8-11.3,12.7-11.3,21.7
		c0,14.6,11.9,26.5,26.5,26.5c0.3,0,0.6,0,0.9,0c3.5,10.5,13.4,18,25.1,18s21.6-7.6,25.1-18.1c0.9,0.1,1.9,0.2,2.8,0.2
		c14.6,0,26.5-11.9,26.5-26.5C778.5,131.6,774,123.8,767.2,118.9z"/>
	<path class="st1" d="M742,84.2c14.6,0,26.5,11.9,26.5,26.5c0,2.9-0.5,5.7-1.3,8.3c6.8,4.8,11.3,12.7,11.3,21.7
		c0,14.6-11.9,26.5-26.5,26.5c-1,0-1.9-0.1-2.8-0.2c-3.5,10.5-13.4,18.1-25.1,18.1s-21.5-7.5-25.1-18c-0.3,0-0.6,0-0.9,0
		c0,0,71-4.9,43-78.9l-3.7-3.3L742,84.2z"/>
	<path class="st2" d="M681.6,110.6"/>
	<polygon class="st0" points="727.1,138.2 721.1,138.2 718.1,232.1 731.1,232.1 	"/>
</g>
<g>
	<g>
		<path class="st0" d="M629.2,173c0,0-7.6,2.7-10.1-4.7c0,0-7.5-0.3-7.2-7.3c0,0-8.2-3.1-6-9.6c0,0-8.7-7.9,0.6-15.2
			c0,0-4.8-7.7,4.4-12c0,0-3.2-10.1,7.3-9.7c0,0,3.7-9.7,13-4.6c0,0,5.1-7.6,13.7-1.7c0,0,10.3-3.8,12.7,6c0,0,9.6,1.5,9.2,9.7
			c0,0,8.6,3.9,5.1,12.5c0,0,5,8.3-1.5,14.5c0,0,0.8,13.8-9.1,12.1c0,0-1.3,5.6-7.6,6.4c0,0-3,6.4-8.6,3.7c0,0-6,3.8-8.5,0
			L629.2,173z"/>
	</g>
	<path class="st1" d="M672,136.6c3.5-8.7-5.1-12.5-5.1-12.5c-1.2,20.6-19.2,42-36.8,39.2c-17.5-2.7-24.2-11.9-24.2-11.9
		c-2.3,6.3,6,9.6,6,9.6c-0.3,6.9,7.2,7.3,7.2,7.3c2.4,7.4,10.1,4.7,10.1,4.7l7.3,0.5c2.5,3.8,8.5,0,8.5,0c5.7,2.8,8.6-3.7,8.6-3.7
		c6.4-0.8,7.6-6.4,7.6-6.4c9.8,1.6,9.1-12.1,9.1-12.1C677,144.9,672,136.6,672,136.6z"/>
</g>
<g>
	<path class="st0" d="M642.3,170c3.5-0.9,6.8-2.4,11.8-2.5c0,0-13,2.8-13.1,9.7s8.5,61.3,8.5,61.3l-22.9,1c0,0,5.7-58.1,5.3-65.7
		c0,0-6.9-12-7.2-23.8c0,0,4.5,12.4,9,18.8c1.2,1.8,6.4-12.6,6.4-12.6l-2.8,16.1L642.3,170z"/>
</g>
</svg>
