<svg xmlns="http://www.w3.org/2000/svg" viewBox="0 0 132 36.1" enable-background="new 0 0 132 36.1"><style type="text/css">.st0{fill:#FFFFFF;} .st1{fill:#F58023;} .st2{fill:#231F20;} .st3{fill:#FFFFFF;enable-background:new ;}</style><path class="st0" d="M7.5 29.6c1.9 2.4 4.1 4.6 6.6 6.4 2.5-1.8 4.7-4 6.6-6.4l-6.6-6.4-6.6 6.4zM4.4 25l9.7-9.3 9.7 9.3c1.6-2.9 2.8-6 3.6-9.4l.1-.5h-26.8c.8 3.6 2 6.9 3.7 9.9z"/><path class="st1" d="M4.4 25c.9 1.6 1.9 3.2 3.1 4.6l6.6-6.4 6.6 6.4c1.1-1.4 2.2-3 3.1-4.6l-9.7-9.3-9.7 9.3z"/><path class="st2" d="M14.1 22.8l-6.6 6.4c-1-1.3-2-2.7-2.8-4.2l9.4-9 9.4 9c-.8 1.5-1.8 2.9-2.8 4.2l-6.6-6.4zM14.1 16.4l9.1 8.7c-.8 1.3-1.6 2.6-2.5 3.8l-6.2-6.1-.3-.3-.3.3-6.2 6c-.9-1.2-1.8-2.5-2.5-3.8l8.9-8.6m0-.7l-9.7 9.3c.9 1.6 1.9 3.2 3.1 4.6l6.6-6.4 6.6 6.4c1.1-1.4 2.2-3 3.1-4.6l-9.7-9.3zM28.1 5.3c-1.1.3-2.3.5-3.6.5-4.4 0-8.3-2.3-10.4-5.8-2.1 3.5-5.9 5.8-10.4 5.8-1.3 0-2.5-.2-3.6-.5-.3 3.4-.1 6.7.6 9.9h26.8c.7-3.3.9-6.7.6-9.9z"/><path class="st3" d="M20.7 9.4v-1.2h-.7v-.8l-.7-.2h-.1v-.7s-.3.3-1.4.3c-1.1 0-1.7-.4-2.6-.4-.8 0-1.1.5-1.1.5v.3-.2s-.3-.5-1.1-.5c-.9 0-1.5.4-2.6.4-1.2 0-1.4-.3-1.4-.3v.7l-.8.1v.8h-.7v1.1h.7v1.8h-.7v1.1h.7v1.4s1.2.2 2.3.2c1.3 0 2-.2 2.9-.2v.4s.3.2.8.2.8-.2.8-.2v-.4c.8 0 1.6.2 2.9.2 1.1 0 2.3-.2 2.3-.2v-1.4h.7v-1.1h-.9v-1.7h.7z"/><path class="st2" d="M19.4 7.1v-.9l-.2.2s-.3.3-1.3.3l-1.4-.2-1.2-.2c-.6 0-1 .3-1.1.4-.2 0-.5-.3-1.2-.3l-1.2.2-1.4.2c-1 0-1.3-.2-1.3-.3l-.2-.3v.8999999999999999l-.8.3v6.5h.1s1.2.2 2.3.2c1.1 0 2.3-.1 2.7-.2v.3h.1s.4.2.8.2c.5 0 .8-.2.9-.2h.1v-.3c.4 0 1.7.2 2.7.2 1.1 0 2.3-.2 2.3-.2h.1v-6.5l-.8-.3zm-5.2 0s.2-.4 1-.4l1.1.2 1.5.1c.7 0 1.1-.1 1.3-.2v6.2s-.3.2-1.3.2l-1.4-.2-1.2-.2c-.5 0-.8.2-1 .3v-6zm-5-.3c.2.1.5.2 1.2.2l1.5-.2 1.1-.2c.7 0 1 .4 1 .4v6.1c-.2-.2-.5-.3-1-.3l-1.2.2-1.4.2c-1 0-1.3-.2-1.3-.2.1-.1.1-5.8.1-6.2zm10.7 6.9c-.3 0-1.2.2-2.1.2-1.3 0-2.8-.2-2.8-.2h-.1v.4c-.1 0-.4.1-.7.1-.3 0-.5-.1-.7-.1v-.4h-.1s-1.6.2-2.8.2c-.9 0-1.8-.1-2.1-.2v-6.2c.1 0 .4-.1.6-.1v5.6c.1.1.3.4 1.5.4l1.5-.2 1.1-.2c.8 0 1 .4 1 .4h.2s.2-.4 1-.4l1.1.2 1.5.2c1.2 0 1.5-.3 1.5-.3v-5.7c.2 0 .4.1.5.1v6.2zM10.9 7.9c-.1 0-.2.1-.2.1l-.4.9-.2-.4-.1-.3c-.1-.1-.1-.2-.1-.2 0-.1-.1-.1-.2-.1h.5s-.2 0-.2.1v.1l.3.6.2-.5v-.1c0-.1 0-.1-.1-.1h.2c.1-.2.2-.2.3-.1zM12 8.9h-.9999999999999999.2v-.8999999999999999c0-.1-.1-.1-.2-.1h.9v.2c-.1-.1-.1-.1-.1-.2h-.30000000000000004v.30000000000000004h.1s.1 0 .1-.1v-.1.2.2c0-.1 0-.1-.1-.2h-.2v.4l.1.1h.30000000000000004l.2-.2v.4zM13.2 8.2c0-.1-.1-.2-.1-.2 0-.1-.1-.1-.2-.1h-.1v.8c0 .1.1.1.2.1h-.6c.2 0 .2 0 .2-.1v-.7999999999999999h-.2c-.1 0-.1.1-.2.2v-.2h1v.3zM10.9 9.8c-.1-.1-.1-.1-.1-.2 0 0-.1-.1-.2-.1h-.1v.8c0 .1.1.1.2.1h-.6c.2 0 .2 0 .2-.1v-.7999999999999999h-.2c-.1 0-.1.1-.2.2v-.2h1v.3zM12 10.5h-.9.2v-.8999999999999999c0-.1-.1-.1-.2-.1h.9v.2l-.2-.2h-.30000000000000004v.30000000000000004h.1s.1 0 .1-.1v-.1.2.2c0-.1 0-.1-.1-.2h-.2v.4s0 .1.1.1h.4l.2-.2-.1.4zM12.7 10.5c-.1 0-.2 0-.2-.1h-.2v-.30000000000000004l.1.2c.2.1.3.1.3.2.1-.1.1-.1.2-.1l.1-.1v-.1l-.1-.1s-.2-.1-.3-.1c-.1 0-.1-.1-.1-.1l-.1-.2c0-.2.1-.3.3-.3.1 0 .2 0 .2.1l.1-.1h.1v.30000000000000004s-.1-.1-.1-.2-.1-.1-.2-.1-.2.1-.2.2l.1.2s.1 0 .2.1c.1 0 .1 0 .2.1s.2.1.2.3c-.2.1-.4.2-.6.2zM11.3 12.1h-.9999999999999999.2v-.8999999999999999c0-.1-.1-.1-.2-.1h.9v.2l-.2-.2h-.30000000000000004v.30000000000000004h.1s.1 0 .1-.1v-.1.2.2c0-.1 0-.1-.1-.2h-.2v.4s0 .1.1.1h.4l.2-.2v.4zM12.8 11.1c-.1 0-.2.1-.2.2v.7l-.7-.8v.6c0 .1 0 .1.1.1h.1-.1-.2-.2c.1 0 .1 0 .2-.1v-.7999999999999999h-.1.2l.5.6.1.1v-.6s-.1 0-.2-.1h.2c.1.1.2.1.3.1zM16.2 7.9c-.2 0-.2 0-.2.2v.7l-.7-.8v.6c0 .1 0 .1.1.1h.1-.1-.2-.2s.1 0 .2-.1v-.6l-.1-.1h-.1.2l.5.6.1.1v-.6s-.1 0-.2-.1h.2c.2-.1.3-.1.4 0zM17.2 8.7c-.1.1-.2.2-.4.2l-.4-.1c-.1-.1-.2-.2-.2-.4 0-.1 0-.3.2-.4.1-.1.2-.2.4-.2.1 0 .2 0 .3.1.2.1.3.3.3.5 0 .1-.1.2-.2.3zm-.1-.7c0-.1-.1-.1-.2-.1s-.1 0-.2.1-.1.2-.1.4 0 .3.1.4c.1.1.1.1.2.1s.2-.1.2-.1l.1-.3c-.1-.3-.1-.4-.1-.5zM18.7 7.9c-.1 0-.2.1-.2.1l-.4.9-.2-.4-.1-.3c0-.1-.1-.2-.1-.2 0-.1-.1-.1-.2-.1h.5s-.2 0-.2.1v.1l.3.6.2-.5v-.1c0-.1 0-.1-.1-.1h.2c.1-.2.2-.2.3-.1zM15.8 9.8c-.1-.1-.1-.1-.1-.2 0 0-.1-.1-.2-.1h-.1v.8c0 .1.1.1.2.1h-.6c.2 0 .2 0 .2-.1v-.7999999999999999h-.2c-.1 0-.1.1-.2.2v-.2h1v.3zM17 10.5h-.6c.1 0 .1 0 .1-.1v-.1c0-.1 0-.1-.1-.1h-.3s0 .1-.1.2v.1s0 .1.1.1h-.4c.1 0 .1 0 .1-.1 0 0 .1-.1.1-.3l.2-.4.1-.2s0-.1.1-.1l.2.4.1.2c0 .1 0 .1.1.2.2.1.3.1.3.2zm-.6-.8s-.1.1-.1.2-.1.1-.1.1h.3s-.1-.2-.1-.3zM18.6 10.5h-.5.1l.1-.1v-.7999999999999999l-.3.4s-.1.1-.1.2-.1.2-.1.2c0-.1 0-.1-.1-.1l-.3-.8v.7c0 .1.1.2.2.2h-.5s.1 0 .1-.1v-.6000000000000001c0-.1 0-.1-.1-.1h-.1.2.2l.3.7.3-.3c0-.1.1-.3.2-.5 0 0 0-.1.1-.1h.4s-.1 0-.2.1v.6c0 .2 0 .2.1.2-.1.1 0 .1 0 .2zM15.8 11.4c-.1-.1-.1-.1-.1-.2 0 0-.1-.1-.2-.1h-.1v.8c0 .1.1.1.2.1h-.6c.2 0 .2 0 .2-.1v-.7999999999999999h-.2c-.1 0-.1.1-.2.2v-.3h1v.4zM17.1 11.1c-.1 0-.2.1-.2.1l-.4.9-.2-.4-.1-.3c0-.1-.1-.2-.1-.2 0-.1-.1-.1-.2-.1h.5s-.2 0-.2.1v.1l.3.6.2-.5v-.1c0-.1 0-.1-.1-.1h.2c.1-.1.2-.1.3-.1zM18.7 12.1h-.5.1l.1-.1v-.7l-.2.5-.1.2c0 .1-.1.2-.1.2 0-.1 0-.1-.1-.1l-.3-.8v.7c0 .1.1.2.2.2h-.5s.1 0 .1-.1v-.7c0-.1 0-.1-.1-.1h-.1.2.3l.3.7.1-.1c0-.1.1-.3.2-.5 0 0 0-.1.1-.1h.4s-.1 0-.1.1v.6c0 .2 0 .2.1.2l-.1-.1z"/><path class="st0" d="M131.8 5.9v-.2h-4.1l-.1.2c0 .1 0 .2.1.2.2.1 1 .2 1.4.4.2.3.3.8.4 1.4v4.3c-.2-.2-.5-.7-1.1-1.3l-4.5-4.9c0-.1-.1-.1-.2-.2h-3s-.1.1-.1.2v.3c.2.1.6.1 1 .5.2.2.6.6.7.8 0 .1.1.2.1.4v5.300000000000001c0 .4 0 .8-.1 1-.3.3-.7.5-1.4.7 0 .1-.1.2-.1.2v.2h3.9000000000000004c.1 0 .1-.2.1-.2v-.2c-.5-.1-1.1-.2-1.6-.8-.1-.2-.2-1.2-.2-1.6v-4.2c.1.1.2.2.2.3l6.1 6.9c.1.1.3.1.4.1h.2c0-.1.1-.3.1-.6v-6.8c0-1.7.8-2.1 1.7-2.2.1 0 .1-.1.1-.2m-15.2 4.2c0 2-.6 3.8-1.3 4.4-.4.3-.9.5-1.4.5-.7 0-1.4-.3-1.8-.9-.5-.8-.8-2.2-.8-3.4 0-1.8.5-3.3 1.3-4 .5-.4.9-.5 1.4-.5.7 0 1.4.3 1.8.9.5.7.8 1.7.8 3m2.4.3c0-1.9-.8-3.3-2.4-4.1-.8-.5-1.6-.7-2.5-.7-1.9 0-3.7 1.2-4.5 2.5-.5.8-.8 1.7-.8 2.7 0 1.5.7 3 1.9 3.9.9.6 1.9 1 3 1 .7 0 1.4-.1 2-.4.7-.3 1.4-.7 1.8-1.3 1-1 1.5-2.2 1.5-3.6m-11.7-1.7v-2.7c0-.2-.1-.2-.3-.2h-9.399999999999999c-.2 0-.2 0-.2.2v2.5l.2.1h.3c.6-1.2 1.2-1.9 1.9-2.2.4 0 1.2-.1 1.4-.1v7.8c-.1.4 0 .7-1.6.7v.5h.5l2.1-.1h2.8v-.3c0-.1 0-.2-.1-.2s-1 0-1.4-.3c0-.1-.1-.5-.1-1v-7.300000000000001h1c.8.2 1.2.5 1.6 1 .2.3.5.8.7 1.4h.2c.2.3.4.2.4.2m-11.4 4.3v-.4h-.5c-.4 1-1.1 1.8-1.5 2-.2.1-.5.1-1 .1h-1.1c-.4 0-.8 0-.9-.1-.2 0-.4-.4-.5-.6-.1-.2-.1-.2-.1-.8v-2.9h.5c.1 0 .5 0 .8.2.3.1.5.3.6.6.1.2.2.9.2 1.1h.3c.1 0 .2 0 .3-.1 0-.4-.1-1.3-.1-1.9 0-.7.1-1.6.1-2.1-.1 0-.1-.1-.3-.1h-.3c0 .2-.2.7-.2.8-.2.3-.5.6-.9.7-.2.1-.6.1-.8.1h-.3v-2.8c0-.2 0-.3.1-.4h2c.4 0 .6.1.9.3.5.4.9 1 1.3 1.6h.3c.1 0 .1 0 .2-.1.1-.9 0-1.9 0-2.2 0-.1 0-.2-.3-.2h-8.100000000000001l-.1.2c0 .1 0 .2.1.3l1 .1c.2.2.4.2.5.9v6.1000000000000005c0 .5-.2 1.1-.3 1.3-.1.1-.7.2-1.2.2l-.1.3c0 .1 0 .2.1.2h4.5c.4 0 1.7.1 4.4.1h.4c0-.1 0-.1.1-.2-.1-.4-.1-1.2-.1-2.3m-11.3.5c0-.1-.1-.3-.5-.3h-.1c-.8 1.1-1.7 1.6-2.7 1.6-1.4 0-2.4-.9-2.7-1.8-.2-.4-.4-1.4-.4-2.4s.1-1.8.4-2.3c.6-1.5 1.4-2 2.5-2 .9 0 1.6.5 2.1 1.2.4.2.6.8.8 1.5h.3c.1 0 .3-.1.3-.1 0-.1-.1-1.2-.1-1.5 0-.4.1-1 .1-1.3l-.5-.1c-.2.1-.3.3-.5.5-.7-.5-1.4-.9-2.9-.9-1.4 0-2.5.5-3.3 1.3-.9.9-1.4 2.1-1.4 3.7 0 1.7.7 3.1 1.9 4 .7.5 1.8.9 3.1.9 1.6 0 2.8-.6 3.4-1.4.1-.3.1-.4.2-.6m-10.3-7.6v-.2h-4.1l-.1.2c0 .1 0 .2.1.2.2.1 1 .2 1.4.4.2.3.3.8.4 1.4v4.3c-.2-.2-.5-.7-1.1-1.3l-4.5-4.9c0-.1-.1-.1-.2-.2h-3s-.1.1-.1.2v.3c.2.1.6.1 1 .5.2.2.6.6.7.8 0 .1.1.2.1.4v5.300000000000001c0 .4 0 .8-.1 1-.3.3-.7.5-1.4.7 0 .1-.1.2-.1.2v.2h3.9000000000000004c.1 0 .1-.2.1-.2v-.2c-.5-.1-1.1-.2-1.6-.8-.1-.2-.2-1.2-.2-1.6v-4.2c.1.1.2.2.2.3l6.1 6.9c.1.1.3.1.4.1h.2c0-.1.1-.3.1-.6v-6.8c0-1.7.8-2.1 1.7-2.2.1 0 .1-.1.1-.2m-13.1 9.2v-.3c-.2 0-.7-.1-1-.1-.2-.3-.4-.5-.5-1v-6.4c0-.4.1-.6.2-.7.3-.2.8-.3 1.2-.3v-.3c0-.1 0-.2-.1-.2h-.4c-.6 0-1.9.1-2.3.1h-2.5s-.1.1-.1.2v.2c.7.1.9.1 1 .2.2.1.4.4.4 1.1v6.1000000000000005c0 .3-.1.6-.2.8-.2.1-.3.4-1.3.4v.5h.2c.5 0 1.9-.1 2.5-.1h2.4c.5 0 .5-.1.5-.2m-10.7-6.9c0 .8-.6 1.8-1.2 1.9-.3.1-.6.1-1.1.1h-.5v-3.6c0-.2 0-.3.1-.3 0 0 .3-.1.6-.1 1 0 1.5.1 1.9.7.2.4.2.8.2 1.3m3.9 6.9c0-.1 0-.2-.1-.3-.1 0-.7 0-.9-.2-.1-.1-.2-.2-.2-.3-.2-.6-.4-1-.6-1.5-.3-.7-.7-1.3-1-1.6-.1-.1-.5-.3-1-.4-.2-.1-.4-.1-.5-.2l.5-.1c1-.1 1.2-.3 1.5-.5.6-.4.9-1 .9-1.7 0-1.1-.7-2.1-1.7-2.4-.3-.1-.9-.1-1.6-.1-1 0-2.4.1-3.1.1h-2.6v.30000000000000004l.8.1c.3.2.4.4.6.7.1.4.1 1.5.1 3.4 0 1.4 0 2.9-.1 3.4 0 .3-.2.7-.5.9-.2 0-.5.1-.8.1l-.1.3s0 .1.1.2h4.9l.1-.2c0-.1 0-.2-.1-.3-.3 0-.6-.1-.7-.1-.3-.2-.6-.5-.6-.9v-3.1h.3c.2 0 .4 0 .7.2.5.3.7.5 1.1 1 .4.7.7 1.9.8 2.9 0 .3.1.5.4.5h3.2c.2 0 .2-.1.2-.2m-14.4-6.9c0 .7-.2 1.3-.7 1.7-.3.2-.7.4-1.4.4h-.6c-.1 0-.2 0-.2-.1v-3.9c.2 0 .4-.1.8-.1.9 0 1.5.2 1.7.8.3.3.4.8.4 1.2m2.4.1c0-1-.6-1.9-1.4-2.3-.4-.2-1.2-.3-2.4-.3-1 0-2.6.1-3.3.1-.5 0-1.2-.1-1.6-.1 0 .1-.1.2-.1.2v.3c.3.1.7.1.9.2.2.2.3.4.4.8 0 .5.1 1 .1 2.1 0 2.8 0 4.3-.1 4.6-.1.4-.3.8-.8.9-.2 0-.5.1-.8.1v.5c.4 0 1.7-.1 2.2-.1 1.2 0 2.4.1 2.9.1h.3v-.4c-.4-.1-1-.1-1.2-.4-.1-.2-.3-.4-.3-.8v-2.9c.8.1 1.6.1 2.1.1.6 0 1.1-.1 1.5-.2 1-.5 1.6-1.5 1.6-2.5M132 20.7l-.1-.2h-1.5c-.7 0-1.5-.1-1.9-.1l-.1.2v.2c.4.1.9.2 1 .4.1.2.1.3.1.5s0 .3-.1.5c-.1.3-.4.8-.7 1.6-.6 1.2-1 2-1.2 2.3-.3-.6-1.1-2.1-1.3-2.5l-.7-1.6c0-.1-.1-.2-.1-.4s0-.3.1-.3c.1-.2.5-.3 1.1-.3v-.2c0-.1 0-.1-.1-.1h-3.9000000000000004c-.1.1-.1.1-.1.2s0 .1.1.2c.9.2 1.2.4 1.2.5l2.3 4.6c.2.4.4.8.4 1 .1.4.1.9.1 1.6 0 .6-.2.9-.4 1-.1.1-.8.1-1.1.2-.1.1-.1.1-.1.2v.2h4.3l.1-.2c0-.1 0-.1-.1-.2-.4-.1-1-.1-1.2-.3-.2-.2-.3-.3-.3-.8l-.1-2c0-.1 0-.3.1-.3l.1-.4 2-4c.2-.3.6-.7.9-.9.2-.1.6-.2.9-.3.3-.2.3-.2.3-.3m-10.7 2.8v-2.6c0-.2-.1-.3-.3-.3-.4 0-2.2.1-4.4.1h-4.5c-.2 0-.2 0-.2.2v2.4l.2.1h.2c.5-1.2.8-1.8 1.7-2.2.4 0 1.8-.1 2-.1v8.100000000000001c-.1.4 0 .7-1.6.7v.4h.5l1.6-.1h2.3v-.2c0-.1 0-.1-.1-.2-.1 0-1 0-1.4-.3 0-.1-.1-.5-.1-1v-7.6h1.6c.8.2 1.1.5 1.5 1 .3.4.4.8.6 1.4h.2c.1.2.2.2.2.2m-11 6.5v-.2c-.2 0-.7-.1-1-.1-.2-.3-.4-.5-.5-1v-6.699999999999999c0-.4.1-.6.2-.7.2-.2.8-.3 1.2-.3v-.2c0-.1 0-.1-.1-.2h-.4c-.6 0-1.4.1-1.8.1-.3 0-1.1 0-1.7-.1h-.2l-.1.2v.2c.7.1.9.1 1 .2.2.1.4.4.4 1.1v6.2c0 .3-.1.6-.2.8-.2.1-.3.4-1.3.4v.4h.2c.5 0 1.4-.1 2-.1h1.9c.3.1.4.1.4 0m-6.6-2.4c0-1.1-.5-1.8-1.5-2.3-.3-.2-.8-.3-1.5-.5-.8-.2-1.5-.5-1.9-.7-.3-.2-.8-.6-.8-1.4 0-.8.9-1.6 1.9-1.6.8 0 1.4.4 1.8.9.3.5.5.7.8 1.5h.1l.3-.1c0-.3-.1-.8-.1-1.2 0-.3.1-.8.1-1-.1-.2-.2-.2-.4-.2-.2.1-.4.3-.5.5-.9-.7-1.6-.8-2.3-.8-1.6 0-2.8 1.1-2.8 2.5 0 .5.2 1 .5 1.5.3.4.7.7 1.3 1 .4.2 2.1.7 2.3.8 1.1.4 1.5.8 1.5 1.7 0 .5-.2.9-.6 1.3-.3.4-.9.6-1.5.6s-1.7-.3-2.2-1c-.3-.4-.8-1.3-.9-1.8h-.2c-.1 0-.2 0-.3.1 0 .2.1 1 .1 1.3 0 .7-.1 1-.1 1.2 0 .1.3.3.4.3.3-.2.6-.4.7-.4.1 0 .2 0 .3.1.9.6 1.6.7 2.2.7 2-.2 3.3-1.2 3.3-3m-11.8-4.6c0 .8-.7 1.8-1.5 2-.3.1-.8.1-1.4.1h-.8v-3.7c0-.2 0-.3.1-.3s.6-.1.9-.1c1.2 0 1.8.1 2.3.8.3.3.4.7.4 1.2m2.8 7c0-.1 0-.1-.1-.2-.1 0-.7 0-.9-.2-.1-.1-.2-.2-.2-.3-.2-.6-.4-1.2-.6-1.7-.3-.7-.7-1.3-1-1.6-.1-.1-.5-.3-1-.4-.2-.1-.4-.1-.5-.2.2 0 .3 0 .5-.1.9-.1 1.2-.3 1.4-.5.5-.4.9-1 .9-1.7 0-1.1-.7-2.1-1.7-2.4-.3-.1-.9-.1-1.6-.1-1 0-1.7.1-2.4.1h-2.1l-.1.2v.2l.8.1c.3.2.4.4.6.7.1.4.1 1.6.1 3.5 0 1.4 0 3.1-.1 3.6 0 .3-.2.7-.5.9-.2 0-.5.1-.8.1l-.1.2s0 .1.1.2h3.9000000000000004c0-.1.1-.1.1-.1 0-.1 0-.1-.1-.2-.3 0-.6-.1-.7-.1-.3-.2-.6-.5-.6-.9v-3.3h.6c.4 0 .7 0 1.1.2.5.2 1 .6 1.3 1.1.4.7.7 1.9.8 2.9 0 .3.1.5.4.5h2.2c.3-.4.3-.4.3-.5m-11.1-2v-.4h-.4c-.3 1-.8 1.7-1.4 2-.2.1-.6.1-1.1.1h-1.5c-.5 0-.8 0-.9-.1-.2 0-.4-.4-.5-.6-.1-.2-.1-.3-.1-.9v-3h.4c.4 0 .8 0 1.1.2.3.1.6.4.7.6.1.2.2.9.2 1.1l.2.1c.1 0 .1 0 .2-.1 0-.4-.1-1.3-.1-1.9 0-.7.1-1.5.1-2l-.2-.1h-.2c0 .2-.1.7-.2.8-.2.3-.7.6-1 .7-.2.1-.6.1-1.1.1h-.2v-3.3c0-.2 0-.3.1-.4h2.6c.4 0 .6.1.9.3.6.5.8.8 1.2 1.6h.2c.1 0 .1 0 .2-.1 0-.8-.1-1.7-.1-2.1 0-.1 0-.2-.3-.2h-7.3999999999999995l-.1.2c0 .1 0 .1.1.2l1 .1c.2.2.4.2.5.8v6.3c0 .5-.2 1.2-.3 1.3-.1.1-.7.2-1.2.2l-.1.2c0 .1 0 .1.1.2h3.8000000000000003c.4 0 1.7.1 4.4.1h.4c0-.1 0-.1.1-.2-.1-.1-.1-.7-.1-1.8m-9.8-7.2c0-.1 0-.1-.1-.1h-1.5c-1.1 0-1.5-.1-1.6-.1h-.2l-.1.2v.1c.3 0 .6.1.9.2.2.2.3.5.3.8 0 .1-.1.8-.3 1.2l-2.1 5.3-2.6-6.7c0-.3.2-.6.4-.7.2 0 .5-.1.9-.1l.1-.2c0-.1 0-.1-.1-.1h-.3c-.4 0-1 .1-1.7.1h-2l-.1.2v.2c.4.1.7.2 1.1.5.3.4.8 1.7 1.1 2.4l1.1 2.7c.9 2.2 1.5 3.7 1.5 3.9l.1.1c.1 0 .1 0 .1-.1l3.4-8.2c.1-.3.3-.6.5-.8.2-.2.6-.3 1.1-.4 0-.3.1-.4.1-.4m-11.7 9.2v-.2c-.2 0-.7-.1-1-.1-.2-.3-.4-.5-.5-1v-6.699999999999999c0-.4.1-.6.2-.7.3-.2.8-.3 1.2-.3v-.2c0-.1 0-.1-.1-.2h-.4c-.6 0-1.4.1-1.8.1-.3 0-1.1 0-1.7-.1h-.3l-.1.2v.2c.6.1.9.1 1 .2.2.1.4.4.4 1.1v6.2c0 .3-.1.6-.2.8-.2.1-.3.4-1.3.4v.4h.2c.5 0 1.4-.1 2-.1h1.9c.5.1.5.1.5 0m-6-9.3v-.1h-4s-.1.1-.1.2 0 .1.1.1c.2.1 1 .2 1.4.4.2.3.3.8.4 1.4v5.3999999999999995c-.2-.3-.6-.7-1.1-1.4l-5.1-5.9c0-.1-.1-.1-.2-.2h-2.1v.30000000000000004c.2.1.8.1 1 .4.2.2.5.5.6.8 0 .1.1.2.1.4v5.699999999999999c0 .4 0 .8-.1 1-.3.3-.7.5-1.4.7l-.1.2v.1h3.8c.1 0 .1-.1.1-.2v-.1c-.5-.1-1.1-.2-1.6-.8-.1-.2-.2-1.2-.2-1.7v-4.9l.3.3 6.3 7.4c.1.1.1.1.2.1h.1c0-.1.1-.3.1-.6v-6.6c0-1.7.8-2.1 1.7-2.2-.2-.1-.2-.1-.2-.2m-12.2.1c0-.1 0-.1-.1-.2h-3.8l-.1.2v.2c.1 0 1 0 1.2.3.1.2.5.7.5 1 0 .1.1.7.1 1.5v2.3c0 .7-.1 1.3-.2 1.8-.4 1.2-1.2 1.7-2.6 1.7-.6 0-1.1-.1-1.6-.3-.9-.4-1.3-1.2-1.3-1.7l-.1-4v-1.6c0-.3.4-.6.5-.7.1-.1.7-.1 1-.1l.1-.2c0-.1 0-.1-.1-.2h-4.2c-.1 0-.1.1-.1.2s0 .1.1.2c.4.1.7.1.9.1.2.1.4.4.5.6v4.6c0 .8 0 1.4.1 1.8.2.7.5 1.2 1.2 1.6.6.4 1.5.6 2.4.6.9 0 1.6-.2 2.3-.5.7-.4 1.1-.9 1.3-1.8.1-.5.2-1 .2-1.6v-3.9000000000000004c0-.7.2-1.1.4-1.5.2-.1.4-.1 1.1-.2.2-.1.3-.1.3-.2"/></svg>