<svg xmlns="http://www.w3.org/2000/svg" viewBox="0 0 103.4 36.2" enable-background="new 0 0 103.4 36.2"><style type="text/css">.st0{fill:#8F8D8D;} .st1{fill-rule:evenodd;clip-rule:evenodd;fill:#030303;} .st2{fill:#FFFFFF;}</style><path class="st0" d="M10.2.4h1.6l2.2 11.1v-11.1h1.3v16.3h-1.5l-2.4-11.6v11.6h-1.2v-16.3zM18.9.4v14.1c0 .7.4 1.1 1.1 1.1.4 0 .7-.2.9-.5.1-.3.2-.6.2-1.8v-12.9h1.4v12.9c0 1.2 0 1.5-.1 2-.2 1-1.1 1.6-2.4 1.6-.7 0-1.4-.2-1.8-.7-.3-.3-.5-.6-.6-1-.1-.5-.1-.7-.1-2v-12.8h1.4zM28 6.7v-4.1c0-.7-.4-1.1-1.1-1.1-.4 0-.7.2-.9.5-.2.3-.2.6-.2 1.8v10.7c0 .7.4 1.1 1 1.1.4 0 .7-.2.9-.5.1-.3.2-.6.2-1.8v-3.1h1.4v3.1c0 1.2 0 1.5-.1 2-.2 1-1.1 1.6-2.4 1.6-.7 0-1.4-.2-1.8-.7-.3-.3-.5-.6-.5-1-.1-.5-.1-.7-.1-2v-9.4c0-1.2 0-1.5.1-2 .2-1 1.1-1.6 2.4-1.6.7 0 1.4.2 1.8.6.3.3.5.6.5 1 .1.5.1.7.1 2v2.9h-1.3zM31.4.4h1.4v15h2.3v1.3h-3.7v-16.3zM36.6.4h4v1.3h-2.6v6h2.6v1.3h-2.6v6.4h2.6v1.3h-4v-16.3zM43.4.4h1.9l1.8 16.3h-1.4l-.4-4.3h-2l-.5 4.3h-1.4l2-16.3zm1.8 10.7l-.8-7.9-.9 7.9h1.7zM52.3 16.7c-.1-.6-.2-.9-.2-2v-3.9c0-1.1-.2-1.5-1.1-1.5h-1v7.4h-1.4v-16.3h2.3c.9 0 1.5.2 1.9.6.5.5.6 1 .6 2.5v2.8c0 1.2-.2 1.8-1 2.3.7.3 1 1 1 1.8v5c0 .6 0 .8.2 1.2h-1.3zm-2.1-8.7h.8c.9 0 1.1-.3 1.1-1.4v-3.4c0-1.1-.2-1.5-1.1-1.5h-1v6.3h.2zM10.2 19.4h3.8v1.3h-2.3v6h2.3v1.3h-2.3v7.7h-1.4v-16.3zM17.1 19.4v14.1c0 .7.4 1.1 1.1 1.1.4 0 .7-.2.9-.5.1-.3.2-.6.2-1.8v-12.9h1.4v12.9c0 1.2 0 1.5-.1 2-.2 1-1.1 1.6-2.4 1.6-.7 0-1.4-.2-1.8-.7-.3-.3-.5-.6-.6-1-.1-.5-.1-.7-.1-2v-12.8h1.4zM23.9 20.7h-1.7v-1.3h4.8v1.3h-1.7v15h-1.4v-15zM30 19.4v14.1c0 .7.4 1.1 1.1 1.1.4 0 .7-.2.9-.5.1-.3.2-.6.2-1.8v-12.9h1.4v12.9c0 1.2 0 1.5-.1 2-.2 1-1.1 1.6-2.4 1.6-.7 0-1.4-.2-1.8-.7-.3-.3-.5-.6-.6-1-.1-.5-.1-.7-.1-2v-12.8h1.4zM39.5 35.7c-.1-.6-.2-.9-.2-2v-3.9c0-1.1-.2-1.5-1.1-1.5h-.8999999999999999v7.4h-1.4v-16.3h2.3c.9 0 1.5.2 1.9.6.5.5.6 1 .6 2.5v2.8c0 1.2-.2 1.8-1.1 2.3.7.3 1.1 1 1.1 1.8v5c0 .6 0 .8.2 1.2h-1.4zm-2-8.7h.7c.9 0 1.1-.3 1.1-1.4v-3.4c0-1.1-.2-1.5-1.1-1.5h-.8999999999999999v6.3h.2zM43.1 19.4h4v1.3h-2.6v6h2.6v1.3h-2.6v6.4h2.6v1.3h-4v-16.3zM52.3 25.2v-3.5c0-.7-.4-1.1-1.1-1.1-.4 0-.8.2-.9.5-.2.3-.2.6-.2 1.8v1.4c0 .7.2 1.1 1 1.8l1.6 1.4c.8.7 1.1 1.4 1.1 2.6v2.2c0 1.2 0 1.5-.1 2-.2 1-1.1 1.6-2.4 1.6-.8 0-1.4-.2-1.9-.7-.3-.3-.5-.6-.5-1-.1-.5-.1-.7-.1-2v-3h1.4v4.2c0 .7.4 1.1 1.1 1.1.4 0 .8-.2.9-.5.2-.3.2-.6.2-1.8v-2.2c0-.6-.2-1-.7-1.4l-1.7-1.5c-1.1-1-1.3-1.5-1.3-2.8v-1.5c0-1.2 0-1.5.1-2 .2-1 1.1-1.6 2.4-1.6.8 0 1.4.2 1.9.6.3.3.5.6.5 1 .1.5.1.7.1 2v2.3h-1.4z"/><path class="st1" d="M0 0h3.9v36.2h-3.9z" id="Shape_1_3_"/><path class="st1" d="M59.2 0h3.9v36.2h-3.9z" id="Shape_1_copy"/><path class="st2" d="M68.7.1h3.1v32.6h5v2.9h-8.1v-35.5zM82.7.1h4.2l4 35.5h-3.1l-1-9.3h-4.3l-1 9.3h-3.1l4.3-35.5zm3.8 23.3l-1.7-17.2-1.9 17.2h3.6zM97.8.1c2 0 3.2.4 4.2 1.4 1.1 1.1 1.4 2.1 1.4 5.5v5.3c0 2.7-.5 3.9-2.3 5 1.5.7 2.3 2.1 2.3 3.9v7.7c0 2.7-.2 3.9-1 5-.9 1.3-2.2 1.8-5 1.8h-4.7v-35.6h5.1zm-1.6 15.7l1.6-.1c1.9 0 2.5-.7 2.5-3.1v-6.4c0-2.4-.5-3.2-2.5-3.2h-2.1v12.9h.5zm-.4 16.9h2.1c1.9 0 2.5-.7 2.5-3.2v-7.6c0-2.4-.5-3.2-2.5-3.2h-2.1v14z"/></svg>