<?xml version="1.0" encoding="utf-8"?>
<!-- Generator: Adobe Illustrator 22.0.0, SVG Export Plug-In . SVG Version: 6.00 Build 0)  -->
<svg version="1.1" id="Front_mtn" xmlns="http://www.w3.org/2000/svg" xmlns:xlink="http://www.w3.org/1999/xlink" x="0px" y="0px"
	 viewBox="0 0 1800.2 962.1" style="enable-background:new 0 0 1800.2 962.1;" xml:space="preserve">
<style type="text/css">
	.st0{fill:#56909A;}
	.st1{fill:#383C3F;}
	.st2{fill:#EDE4A2;}
</style>
<path class="st0" d="M299.6,241.3c-0.4-7.8-3.5-15.1-9.7-19.9c-13.1-10.2-32.6-10.2-48.1-7.5c-15.5,2.7-35.8,8.3-43.6,23.5
	c-7.3,14.3-8.6,37.1-29.2,36.3c-7.7-0.3-15.2-2.7-19.8-9.3c-4.5-6.4-5.9-14.4-7.1-22c-2.3-15.8-4.4-31.4-5.2-47.4
	c-0.7-15.8-1.6-31.7,6.3-46.1c3.3-6.1,7.9-11,14.4-13.6c5.2-2.1,11.9-2.7,16.2-6.6c6.7-6,8-17.7,6.3-26c-1.8-9.1-6.2-17.3-10.8-25.3
	c-4.7-8.3-4.3-23.5-7.6-32.2c-15,16-27.6,36.3-38,52.2C116.4,108.6,14.9,234.3,1,251.7v7.3c0,1.3-0.4,2.3-1,3v0.6
	c2.1,12,4.2,24.6,0,36.2V561c0-3.6,24.5-17,27.6-19.1c15-10.4,30.5-20.4,44.8-31.9c18.3-14.7,32-35.6,47.1-53.4
	c25.3-29.8,48.1-58.7,65.7-93.6c6.2-12.3,12.3-24.6,18.5-36.9c1-2,5.3-3.2,7.4-3.6c3.9-0.6,7.8-0.3,11.5,0.9
	c9.2,2.9,18.4,10.1,28.3,9.7c7.4-0.3,22.2-7.8,19.6-17.2c-1.7-6.2-4.2-11.7-2.4-18.3c1.8-6.7,5.5-12.4,9.2-18.2
	c4.9-7.6,10.1-15,15.1-22.5C295.7,252,299.9,247.5,299.6,241.3z"/>
<path class="st1" d="M1693.4,771.9l-386.7-57.7L889.9,594.9L706.3,427.5l-402-386.9L217,0l-67.2,55c0,0-60.3,86.2-148.8,196.8v7.2
	c0,1.3-0.4,2.3-1,3v0.6c2.1,12,4.2,24.6,0,36.2V957l456.6,0.8l599.4-16.4l475.4-29.8l268.5-73.6L1693.4,771.9z"/>
<path class="st2" d="M452.2,183L304.3,40.6L217,0l-67.2,55L1,251.7v7.3c0,1.3-0.4,2.4-1.1,3.1c1.8,10.1,3.6,20.5,1.8,30.5
	C114,195,114,195,114,195l110,48l50-60l144.2,97.6L400,183H452.2z"/>
</svg>
