<?xml version="1.0" encoding="utf-8"?>
<!-- Generator: Adobe Illustrator 21.0.0, SVG Export Plug-In . SVG Version: 6.00 Build 0)  -->
<svg version="1.1" id="Front_mtn" xmlns="http://www.w3.org/2000/svg" xmlns:xlink="http://www.w3.org/1999/xlink" x="0px" y="0px"
	 viewBox="0 0 1800.2 962.1" style="enable-background:new 0 0 1800.2 962.1;" xml:space="preserve">
<style type="text/css">
	.st0{fill:#70AAB3;}
	.st1{fill:#56909A;}
	.st2{fill:#436F78;}
</style>
<g id="base_1_">
	<g>
		<path class="st0" d="M1702.3,4.1c-36.1-14.4-67.5,27.3-88.7,50.6c-10.6,11.7-21.5,21.7-35.2,29.7c-14.8,8.7-30.1,16.5-44.5,25.9
			c-13.6,8.9-25.8,19.5-35.8,32.2c-12.8,16.3-21.6,33.8-30.2,52.4c-3,6.5-6.3,13-10.8,18.7c-4.8,6-11.3,13.9-18.2,17.6
			c-17.7,9.3-38.1,8.3-56.5,15.2c-11.3,4.3-23.5,11.9-29.8,22.5c-4.8,8-7.3,16.8-9.6,25.8c-4.4,17.3-9.8,30.4-24,42
			c-11,9-23.1,12.1-36.5,15.9c-20.4,5.7-41,13.3-59.1,24.4c-15.8,9.7-29.7,21.7-43.8,33.6c-8.7,7.3-17.5,14.5-26.6,21.3
			c-7.6,5.6-16.5,10-24.8,14.6c-12.3,6.8-25.1,13.2-36.6,21.4c-12.1,8.6-22.3,19.3-31.3,31c-11.8,15.3-20.7,33.4-34.1,47.5
			c-9.5,9.9-20.8,17.5-33.6,22.6c-14.8,5.9-30.3,9.4-45.5,13.9c-21.3,6.2-41.4,15-62.2,22.5c-44.9,16.2-91.5,27.3-138.9,33.1
			c-48.5,6-97.5,7.1-146.4,5.8c-53-1.5-105.8-6.3-158.8-5.5C358.6,640,81.9,640.2,0,646.6c9.8,14.4,96.6,39.4,108,52.6
			c11.5,13.3,39.1,32.5,53.5,42.6c30.4,21.3,71.4,19.9,102,41c26.6,18.3,51.5,46.8,82,58.3c24.5,9.3,49.1,18.9,74,27.2
			c54.2,18.1,110.5,22.1,166,33.7c60.7,12.7,84.2,53.1,146.2,56.3c64.2,3.2,270.1,1.4,319.8,1c134.9-0.9,274-1,408,0
			c72.4,0.5,244.4,5.6,316.6,0.8c1.2-0.1,23.9-8.3,23.9-8.6c0,0,0.2-810.9,0.2-810.9c-2.3-2.2-20.7-57.8-57.2-81.3
			C1703.2,33.6,1705.6,5.5,1702.3,4.1z"/>
		<path class="st1" d="M1364.7,634c-7.5,6.1-17.1,9.2-26.4,11.1c-9.3,1.8-19.5,3.4-28.9,1.5c-29.5-5.8-17.8-42.9-20-63.9
			c-1.1-10.4-5.3-22.1-10.9-30.9c-4.8-7.5-12.1-14.9-21.7-14.2c-9.9,0.7-21.5,7.6-25.8,16.7c-4.3,9.2-6.7,19.2-10.2,28.7
			c-3.1,8.4-7,15.9-12.6,23c-5.6,7-13.2,11.6-19.8,17.6c-12.6,11.6-15.4,28.6-12.6,44.9c3.9,23.2,21.4,39.1,42.1,48.4
			c25.7,11.5,54.7,15.3,82.6,17.1c57.4,3.6,114.7-2.4,171.9-7.1c37.7-3.1,75.7-0.2,113.4,1.7c51.3,2.6,162.7-0.7,214-1.4l0.4-116.9
			c-2,0.7-101.5,5.6-103.4,6.2c-16.6,5-22.4,0.8-39.5,2.9c-19.8,2.5-20.2,2.7-40.1,2.7c-14.2,0-32.3,0.4-45-7.4
			c-9.1-5.6-10.1-16.6-11.3-26.2c-0.4-3.5-1-7.2-2.9-10.2c-1.6-2.4-3.7-4.5-5.4-6.8c-2.9-3.8-5.8-7.7-9.4-11
			c-4.7-4.4-9.9-6-16.1-7.6c-8.5-2.2-17.4-4.7-25.1-9.1c-17.5-10-30.3-26.5-43.4-41.5c-11.3-12.8-26.1-31-44.5-32.7
			c-16.6-1.5-26.4,16.3-31.7,29.4c-6.2,15.5-10,32.2-11.7,48.8c-1.7,16.9,1.2,32.7,3.2,49.3C1375.9,610.3,1375.9,624.9,1364.7,634z"
			/>
		<path class="st1" d="M1800.2,540.2c-50.2,14-121.5-32.5-137.8-34.4c-12.4-1.4-25.3,0.3-37.6,1.8c-30,3.7-61.1,10.8-91.4,7.1
			c-11.5-1.4-23.8-5.1-31-14.8c-9.5-13-5.8-31.4-1.9-45.7c2.2-8.2,5.4-18.4,12.8-23.6c5.1-3.5,11.2-1.9,16.3,0.6
			c12.9,6.3,23,17.3,35.2,24.7c5.5,3.3,11.4,5.8,17.8,6.4c6.9,0.6,15.9,0.2,21-5.2c3.8-4,4.3-10.4,6.3-15.3
			c2.7-6.7,10.6-14.7,18.3-14.7c5.8,0,11.3,5.1,16.6,7.1c6.5,2.4,13,0.2,18.1-4.2c8.1-7.1,13-16.3,12.7-27.2
			c-0.3-10-5.9-19.2-12.9-26c-3.8-3.7-8.5-6.6-13-9.5c-3.3-2.1-6.9-4.1-10.7-4.8c-4.3-0.7-7,1.9-9.5,4.9c-1.5,1.9-3.1,3.6-5.3,4.6
			c-3.6,1.7-6.8,0.3-10.5,0.5c-5,0.2-10.1-0.6-15-1.4c-16.1-2.3-32.2-6.2-47.3-12.2c-10.7-4.3-29.1-12.5-27.8-26.8
			c0-0.5,21.7,0.2,23.6,0.2c7.8,0,15.6-0.3,23.2-2c6.3-1.5,12.3-4.5,16.3-9.7c4.7-6,5.4-14.1,5-21.5c0-0.4-0.1-0.8-0.1-1.2
			c11,3.5,22.9,6.9,34.4,4.7c10.7-2.1,15.4-11.1,16.5-21c7.8,5.7,15.8,11.3,24.5,15.6c4.3,2.1,9.4,4.4,14.2,3.8
			c8-0.9,7.6-11.3,7-17.2c-1.1-11.9-4.3-23.5-5.6-35.4c-1.1-10.3-3.9-27.7,7.4-32.7c2.7-1.2,10.2-11.9,29-10c5.7,0.6,26.2,5.7,31,2
			c39.5-30.3,17.2-102.3,25.2-115.1c0,0,16.8,25.6,25,47.9V540.2z"/>
		<path class="st1" d="M1686.1,8c-4.9,2.5-9.8,5.3-11.6,10.8c-0.8,2.3-0.7,4.9-1.2,7.4c-0.7,3.6-1.9,7.1-3.2,10.5
			c-1.2,3.2-3,6.2-3.7,9.6c-2.5,11.4-18.6,29.7-21.7,41.1c-3.1,11.3-5.9,22.7-8.8,34.1c-5.1,20.2-10.2,40.4-17.7,59.8
			c-4.1,10.5-8.8,20.8-14.3,30.7c-7.7,13.8-15.3,27.7-23.7,41c-8.6,13.7-19.4,28.2-33.7,36.4c-12,6.9-26.8,7.8-40.3,9.2
			c-15.1,1.6-31.1,3-45.2,9.3c-18.8,8.4-19.5,32.4-26.1,49.2c-7.3,18.4-18,33.3-36,42.6c-16.3,8.3-34.8,11.6-51.7,18.3
			c-6.7,2.7-15,5.9-20.4,10.8c-6.7,6-10.2,14.5-16.4,21c-7,7.4-17,3.5-26,3.7c-6.7,0.2-14,6.1-19.7,9.2c-15.9,8.8-25.7,22-33.5,38
			c-5.1,10.5-8.6,22.1-15.1,31.8c-7.2,10.8-20.8,15.7-32.4,20c-18.8,7-37,12.6-54.2,23.1c-35.4,21.6-63.5,53.2-98.6,75.1
			c-36.7,22.9-78.5,32.6-119.7,44.3c-43.2,12.3-64.6-6.4-109.2-4.7c-48.8,1.9-97.7,0-146.1-6.1c-19.4-2.5-39.8-6-56.7-16.3
			c-18.8-11.4-61.5-11.8-77.1-26.9l77.6,3.3c48.9,1.3,97.9,0.2,146.4-5.8c47.4-5.8,94-16.9,138.9-33.1c20.8-7.5,40.9-16.3,62.2-22.5
			c15.2-4.5,30.7-8,45.5-13.9c12.8-5.1,24.1-12.7,33.6-22.6c13.4-14.1,22.3-32.2,34.1-47.5c9-11.7,19.2-22.4,31.3-31
			c11.5-8.2,24.3-14.6,36.6-21.4c8.3-4.6,17.2-9,24.8-14.6c9.1-6.8,17.9-14,26.6-21.3c14.1-11.9,28-23.9,43.8-33.6
			c18.1-11.1,38.7-18.7,59.1-24.4c13.4-3.8,25.5-6.9,36.5-15.9c14.2-11.6,19.6-24.7,24-42c2.3-9,4.8-17.8,9.6-25.8
			c6.3-10.6,18.5-18.2,29.8-22.5c18.4-6.9,38.8-5.9,56.5-15.2c6.9-3.7,13.4-11.6,18.2-17.6c4.5-5.7,7.8-12.2,10.8-18.7
			c8.6-18.6,17.4-36.1,30.2-52.4c10-12.7,22.2-23.3,35.8-32.2c14.4-9.4,29.7-17.2,44.5-25.9c13.7-8,24.6-18,35.2-29.7
			c21.2-23.3,47.7-64,84.5-51.7c2.2,0.7,3.9,0.9,4.6,1.7C1702.8,4.5,1694.3,3.9,1686.1,8z"/>
		<path class="st2" d="M1702.3,4.1c-42-18-67.7,27-88.9,50.4c-10.7,11.7-21.5,21.7-35.2,29.7c-14.8,8.7-30.1,16.5-44.5,25.9
			c-13.6,8.8-25.8,19.4-35.8,32.2c-12.8,16.3-21.6,33.8-30.2,52.4c-3,6.6-6.3,13-10.8,18.7c-4.8,6-11.3,13.9-18.2,17.6
			c-17.6,9.3-38.1,8.3-56.5,15.2c-11.3,4.2-23.5,11.9-29.8,22.5c-4.8,8-7.3,16.8-9.6,25.8c-4.4,17.3-9.8,30.4-24,42
			c-11,9-23,12.1-36.5,15.9c-20.4,5.7-41,13.3-59.1,24.4c-15.8,9.7-29.7,21.7-43.8,33.6c-8.7,7.3-17.5,14.5-26.6,21.3
			c-7.6,5.7-16.5,10-24.8,14.6c-12.4,6.8-25.1,13.2-36.6,21.4c-12.1,8.7-22.3,19.3-31.3,31c-11.8,15.4-20.7,33.5-34.1,47.5
			c-9.5,9.9-20.8,17.5-33.6,22.6c-14.8,5.9-30.3,9.4-45.5,13.9c-13.1,3.9-105.9,35.1-118.6,40c15.6,6.3,88.6-0.7,105.2,1.5
			c12.3,1.6,48.4-12.6,60.6-15c10.3-2.1,24.4-5.7,31.1-14.5c6.2-8.1,8.1-18.9,14.8-26.6c6.1-7,16.9-9.1,25-12.9
			c3.4-1.6,7.3-3.2,9.3-6.5c1.8-3.1,3.4-6.3,4.9-9.5c2.7-5.6,4.8-12.7,8.8-17.5c0.4-0.5,0.8-0.4,1.2-0.2c0.1,0,0.1,0,0.1,0
			c0.6-0.3,1.1-0.5,1.6-0.8c1.1-0.6,2.1-1.2,3.2-1.8c3-1.7,6.1-3.5,9.1-5.3c6-3.5,12.1-6.8,17.4-11.2c17.3-14.3,34.6-28.2,54.7-38.5
			c10-5.1,19.1-11.1,26.5-19.7c6-7,10.9-14.9,16.4-22.3c5.2-7.2,11.3-15.7,18.9-20.6c4.2-2.7,8.9-4.8,13.4-6.9
			c14.8-6.9,29.9-13,44.8-19.8c8.3-3.8,17.6-3.1,26.5-2.6c14.6,0.8,29.9,2.4,44-2.3c1.1-0.3,7.9-2.2,7.6-3.8
			c-0.2-1.1-0.4-2.2-0.6-3.3c-0.5-2.8-1-5.6-1.4-8.4c-0.6-4.6-1.1-9.2-0.9-13.8c0.3-7.5,2.1-14.5,5.6-21.1
			c4.6-8.7,10.8-16.6,16.6-24.6c5.6-7.7,11.7-16.2,20.1-21.3c5.4-3.3,11.6-4.8,17.4-7.1c11.6-4.6,21.8-11.7,30.8-20.2
			c9.1-8.5,17.6-17.9,28-24.9c7.1-4.8,12-2.9,18.9,1.6c3.1,2,7.6,5.4,11.6,3.9c5.6-2,10-9.2,10-15c0-4.3-0.9-8.7,0.2-12.9
			c0.6-2.3,1.9-4.6,1.9-7c0-2.3-0.3-4.6-0.7-6.8c-0.9-5-2.3-10.3-1.8-15.5c0.4-4.5,3.2-7.7,7-10.2c4-2.7,8.4-3.9,12.9-5.6
			c5.3-2,7.5-5.6,10.9-9.9c8.2-10.3,17.2-20,27.1-28.6c7.7-6.8,16.3-12.2,24.1-18.9c12.9-11,24.8-48.8,37.2-66.8
			C1648.3,29.6,1667.3-1.3,1702.3,4.1z"/>
	</g>
</g>
</svg>
