<svg xmlns="http://www.w3.org/2000/svg" viewBox="0 0 373 177.7" enable-background="new 0 0 373 177.7"><style type="text/css">.st0{fill:url(#SVGID_1_);} .st1{fill:url(#SVGID_2_);} .st2{fill:#FFFFFF;}</style><linearGradient id="SVGID_1_" gradientUnits="userSpaceOnUse" x1="83.679" y1="10.747" x2="83.679" y2="178.105"><stop offset="0" stop-color="#FCFCFC"/><stop offset=".995" stop-color="#D9D9D9"/></linearGradient><path class="st0" d="M3.5 172.5c-2.1 0-3.5-1.4-3.5-3.5v-165.5c0-1.8 1.4-3.5 3.5-3.5h57.6c2.8 0 4.5 1.4 5.5 2.8l48 65.9v-65.2c0-1.7 1.7-3.5 3.5-3.5h45.9c2.1 0 3.5 1.7 3.5 3.5v165.6c0 2.1-1.4 3.5-3.5 3.5h-51.4c-1.7 0-3.8-.3-5.5-2.8l-54.6-81.1v80.4c0 2.1-1.7 3.5-3.5 3.5h-45.5z"/><linearGradient id="SVGID_2_" gradientUnits="userSpaceOnUse" x1="285.634" x2="285.634" y2="174.757"><stop offset="0" stop-color="#FCFCFC"/><stop offset=".995" stop-color="#D9D9D9"/></linearGradient><path class="st1" d="M201.9 0h53.5c2.1 0 3.5 1.7 3.5 3.5v91.4c0 13.8 2.1 34.5 28 34.5 25.5 0 25.9-20.4 25.9-34.2v-91.7c0-1.7 1.7-3.5 3.5-3.5h53.5c2.1 0 3.5 1.7 3.5 3.5v94.5c0 10.7-4.8 79.7-85.9 79.7-81.1 0-88.3-53.5-88.7-79.4-.3-26.2 0-94.9 0-94.9-.3-1.7 1.4-3.4 3.2-3.4z"/><path class="st2" d="M114.6 68.7v-65.2c0-1.7 1.7-3.5 3.5-3.5h45.9c2.1 0 3.5 1.7 3.5 3.5v165.6c0 2.1-1.4 3.5-3.5 3.5h-48.4l-1-103.9zM198.7 102.5c4.3 7.2 7.1 8.8 11.2 12.9 14.3 14.4 31.5 26.8 52.2 29.3 14.4 1.7 33.3-.5 42.8-12.7 5.9-7.6 7.2-18 7.4-27.3l.3-9.4v-91.8c0-1.7 1.7-3.5 3.5-3.5h53.5c2.1 0 3.5 1.7 3.5 3.5v94.5c0 10.7-4.8 79.7-85.9 79.7-67.8 0-84-37.4-87.7-64.8 0 0-.5-3.2-.7-6.1-.2-2.2-.1-4.3-.1-4.3zM52.5 88.7v80.4c0 2.1-1.7 3.5-3.5 3.5h-45.5c-2.1 0-3.5-1.4-3.5-3.5v-165.6c0-1.8 1.4-3.5 3.5-3.5h49v88.7z"/></svg>