<?xml version="1.0" encoding="UTF-8"?>
<svg width="1801px" height="1305px" viewBox="0 0 1801 1305" version="1.1" xmlns="http://www.w3.org/2000/svg" xmlns:xlink="http://www.w3.org/1999/xlink">
    <!-- Generator: Sketch 42 (36781) - http://www.bohemiancoding.com/sketch -->
    <title>Shape</title>
    <desc>Created with Sketch.</desc>
    <defs></defs>
    <g id="Page-1" stroke="none" stroke-width="1" fill="none" fill-rule="evenodd">
        <g id="river" fill-rule="nonzero" fill="#70AAB3">
            <g id="Page-1">
                <g id="Layer_4">
                    <path d="M1800.3,281.1 L1400.4,281.1 C1354.1,281.8 1291.3,268.3 1291.3,268.3 C1253.5,258.5 1090.7,234.2 1035.1,150.2 C985,74.5 1071.1,0 1071.1,0 C1037.5,8.6 929.1,60.6 929.1,60.6 C929.1,60.6 842.1,104.6 822.1,115.6 C802.1,126.6 775.2,141.8 775.2,141.8 C775.2,141.8 635,214.1 493.5,243.9 C354.1,273.2 336.8,270.7 290.5,275.6 C244.2,280.5 139.7,284 139.7,284 C45.6,284 0.1,281.2 0.1,281.2 L0,1304.66379 L1800.1,1304.66379 L1800.3,281.1 Z" id="Shape"></path>
                </g>
            </g>
        </g>
    </g>
</svg>